<svg width="14" height="11" viewBox="0 0 14 11" fill="none" xmlns="http://www.w3.org/2000/svg">
<path d="M4.1542 8.55207L1.35403 5.61536C1.28081 5.53763 1.1936 5.47592 1.09747 5.43379C1.00134 5.39167 0.898186 5.36999 0.794 5.36999C0.689813 5.36999 0.586663 5.39167 0.490529 5.43379C0.394394 5.47592 0.307188 5.53763 0.233966 5.61536C0.159849 5.69215 0.101005 5.78361 0.0608426 5.88443C0.0206805 5.98526 0 6.09343 0 6.2027C0 6.31197 0.0206805 6.42015 0.0608426 6.52097C0.101005 6.62179 0.159849 6.71325 0.233966 6.79004L3.58617 10.3057C3.89819 10.6329 4.40222 10.6329 4.71424 10.3057L13.1947 1.42006C13.2689 1.34327 13.3277 1.25181 13.3679 1.15098C13.408 1.05016 13.4287 0.941983 13.4287 0.832716C13.4287 0.72345 13.408 0.61527 13.3679 0.514448C13.3277 0.413626 13.2689 0.322168 13.1947 0.245374C13.1215 0.167644 13.0343 0.10593 12.9382 0.0638092C12.842 0.0216887 12.7389 0 12.6347 0C12.5305 0 12.4274 0.0216887 12.3312 0.0638092C12.2351 0.10593 12.1479 0.167644 12.0747 0.245374L4.1542 8.55207Z" fill="#43C46C"/>
</svg>
