<svg width="235" height="39" viewBox="0 0 235 39" fill="none" xmlns="http://www.w3.org/2000/svg">
<path d="M67.3185 37.091L66.6002 34.968H62.1596L61.4412 37.091H59.5801L63.3677 26.5092H65.4247L69.147 37.091H67.3185ZM62.7146 33.3426H66.0124L64.3472 28.5659L62.7146 33.3426ZM76.3956 31.6177C76.8527 31.8499 77.2119 32.1816 77.4731 32.6128C77.7343 33.0441 77.8649 33.5085 77.8649 34.0724C77.8649 34.9349 77.5711 35.6647 76.9507 36.2286C76.3303 36.7925 75.612 37.091 74.7304 37.091H70.2571V26.5092H74.4039C75.2528 26.5092 75.9711 26.8078 76.5589 27.3385C77.1466 27.9025 77.4405 28.5991 77.4405 29.4284C77.4405 30.3904 77.1139 31.0869 76.3956 31.6177ZM74.4039 28.1678H71.9877V30.9543H74.4039C74.7957 30.9543 75.0895 30.8216 75.3508 30.5562C75.612 30.2908 75.7426 29.9591 75.7426 29.561C75.7426 29.163 75.612 28.8313 75.3508 28.5659C75.0895 28.3005 74.7957 28.1678 74.4039 28.1678ZM74.7304 35.4656C75.1222 35.4656 75.4487 35.3329 75.7099 35.0344C76.0038 34.7358 76.1344 34.4041 76.1344 33.9729C76.1344 33.5748 76.0038 33.2099 75.7099 32.9446C75.4487 32.646 75.1222 32.5133 74.7304 32.5133H71.9877V35.4656H74.7304ZM85.8319 26.5424V28.201H82.8933V37.091H81.1954V28.1678H78.2567V26.5092H85.8319V26.5424ZM95.1702 35.731C94.1254 36.7925 92.852 37.3232 91.35 37.3232C89.848 37.3232 88.5746 36.7925 87.5298 35.731C86.4849 34.6695 85.9625 33.3758 85.9625 31.8499C85.9625 30.324 86.4849 29.0303 87.5298 27.9688C88.5746 26.9073 89.848 26.3766 91.35 26.3766C92.852 26.3766 94.1254 26.9073 95.1702 27.9688C96.2151 29.0303 96.7375 30.324 96.7375 31.8499C96.7701 33.3426 96.2151 34.6363 95.1702 35.731ZM88.7379 34.5368C89.4562 35.2666 90.3378 35.5983 91.3827 35.5983C92.4275 35.5983 93.3091 35.2334 93.9948 34.5368C94.7131 33.807 95.0723 32.9114 95.0723 31.8167C95.0723 30.7221 94.7131 29.8264 93.9948 29.1298C93.2764 28.4 92.4275 28.0352 91.3827 28.0352C90.3378 28.0352 89.4562 28.4 88.7379 29.1298C88.0195 29.8596 87.693 30.7552 87.693 31.8167C87.693 32.8782 88.0195 33.807 88.7379 34.5368ZM103.235 37.2901C101.668 37.2901 100.362 36.7593 99.3496 35.731C98.3048 34.6695 97.815 33.3758 97.815 31.8167C97.815 30.2576 98.3374 28.964 99.3496 27.9356C100.394 26.8741 101.668 26.3434 103.235 26.3434C104.182 26.3434 105.031 26.5756 105.847 27.0068C106.664 27.4712 107.284 28.0683 107.708 28.8644L106.206 29.7269C105.913 29.1962 105.521 28.7981 104.998 28.4995C104.476 28.201 103.888 28.0352 103.235 28.0352C102.125 28.0352 101.211 28.4 100.525 29.0967C99.8394 29.8264 99.5129 30.7221 99.5129 31.8167C99.5129 32.9114 99.8394 33.807 100.525 34.5368C101.211 35.2666 102.125 35.5983 103.235 35.5983C103.888 35.5983 104.476 35.4324 105.031 35.1339C105.553 34.8353 105.978 34.4041 106.239 33.8734L107.741 34.7358C107.317 35.4988 106.696 36.1291 105.88 36.5935C105.064 37.091 104.182 37.2901 103.235 37.2901ZM110.843 35.4324H115.447V37.091H109.145V26.5092H115.382V28.1678H110.843V30.9211H114.99V32.5797H110.843V35.4324ZM120.834 26.5424C121.814 26.5424 122.63 26.8741 123.283 27.5376C123.936 28.201 124.295 29.0303 124.295 30.0255C124.295 30.9874 123.969 31.8167 123.283 32.5133C122.63 33.1768 121.814 33.5085 120.834 33.5085H118.712V37.091H117.014V26.5092H120.834V26.5424ZM120.834 31.8499C121.324 31.8499 121.749 31.684 122.075 31.3523C122.402 30.9874 122.565 30.5562 122.565 30.0255C122.565 29.4947 122.402 29.0635 122.075 28.6986C121.749 28.3337 121.324 28.1678 120.834 28.1678H118.712V31.8499H120.834ZM131.903 31.6177C132.36 31.8499 132.719 32.1816 132.981 32.6128C133.242 33.0441 133.372 33.5085 133.372 34.0724C133.372 34.9349 133.079 35.6647 132.458 36.2286C131.838 36.7925 131.12 37.091 130.238 37.091H125.765V26.5092H129.911C130.76 26.5092 131.479 26.8078 132.066 27.3385C132.654 27.9025 132.948 28.5991 132.948 29.4284C132.948 30.3904 132.589 31.0869 131.903 31.6177ZM129.911 28.1678H127.495V30.9543H129.911C130.303 30.9543 130.597 30.8216 130.858 30.5562C131.12 30.2908 131.25 29.9591 131.25 29.561C131.25 29.163 131.12 28.8313 130.858 28.5659C130.597 28.3005 130.271 28.1678 129.911 28.1678ZM130.238 35.4656C130.63 35.4656 130.956 35.3329 131.217 35.0344C131.511 34.7358 131.642 34.4041 131.642 33.9729C131.642 33.5748 131.511 33.2099 131.217 32.9446C130.956 32.646 130.63 32.5133 130.238 32.5133H127.495V35.4656H130.238ZM141.078 37.091V29.9259L136.181 37.091H134.842V26.5092H136.54V33.6743L141.437 26.5092H142.776V37.091H141.078ZM149.796 37.2901C148.229 37.2901 146.923 36.7593 145.911 35.731C144.866 34.6695 144.376 33.3758 144.376 31.8167C144.376 30.2576 144.898 28.964 145.911 27.9356C146.956 26.8741 148.229 26.3434 149.796 26.3434C150.743 26.3434 151.592 26.5756 152.408 27.0068C153.225 27.4712 153.845 28.0683 154.269 28.8644L152.767 29.7269C152.474 29.1962 152.082 28.7981 151.559 28.4995C151.037 28.201 150.449 28.0352 149.796 28.0352C148.686 28.0352 147.772 28.4 147.086 29.0967C146.4 29.8264 146.074 30.7221 146.074 31.8167C146.074 32.9114 146.4 33.807 147.086 34.5368C147.772 35.2666 148.686 35.5983 149.796 35.5983C150.449 35.5983 151.037 35.4324 151.592 35.1339C152.114 34.8353 152.539 34.4041 152.8 33.8734L154.302 34.7358C153.878 35.4988 153.257 36.1291 152.441 36.5935C151.625 37.091 150.743 37.2901 149.796 37.2901Z" fill="#EDEDED"/>
<path d="M64.7746 3.25169C65.9907 3.25169 67.0042 3.66353 67.815 4.48722C68.6483 5.31092 69.0537 6.34053 69.0537 7.57607C69.0537 8.78873 68.6483 9.81835 67.815 10.6649C67.0042 11.4886 65.9907 11.9005 64.7746 11.9005H62.1395V16.4079H60V3.25169H64.7746ZM64.7746 9.86411C65.4052 9.86411 65.9232 9.65819 66.3286 9.22346C66.7339 8.78874 66.9366 8.23961 66.9366 7.57607C66.9366 6.91254 66.7339 6.36341 66.3286 5.95157C65.9232 5.51684 65.4052 5.28804 64.7746 5.28804H62.1395V9.86411H64.7746ZM79.2334 15.4012C78.31 16.2249 77.1389 16.6367 75.6975 16.6367C74.2561 16.6367 73.085 16.2249 72.1616 15.4012C71.2383 14.5546 70.7878 13.4334 70.7878 12.0377V3.25169H72.9048V11.9233C72.9048 12.7242 73.1301 13.3648 73.5805 13.8453C74.0534 14.3258 74.7516 14.5546 75.675 14.5546C76.5984 14.5546 77.2966 14.3258 77.747 13.8453C78.2199 13.3648 78.4452 12.7242 78.4452 11.9233V3.25169H80.5622V12.0377C80.5847 13.4563 80.1343 14.5775 79.2334 15.4012ZM91.4626 3.25169V5.31092H87.8141V16.385H85.6971V5.31092H82.0261V3.25169H91.4626ZM93.0166 3.25169H95.1336V16.4079H93.0166V3.25169ZM99.8631 14.3258H105.133V16.385H97.7461V3.2288H99.8631V14.3258ZM116.484 16.4079H113.962L108.849 10.1616V16.4079H106.732V3.25169H108.849V9.15482L113.759 3.25169H116.281L111.056 9.65819L116.484 16.4079ZM127.565 14.669C126.281 15.9732 124.682 16.6367 122.813 16.6367C120.943 16.6367 119.344 15.9732 118.038 14.669C116.754 13.3419 116.101 11.7174 116.101 9.81835C116.101 7.91928 116.754 6.29478 118.038 4.9906C119.344 3.66353 120.943 3 122.813 3C124.682 3 126.281 3.66353 127.565 4.9906C128.871 6.29478 129.524 7.91928 129.524 9.81835C129.524 11.7403 128.871 13.3419 127.565 14.669ZM119.547 13.2046C120.425 14.097 121.529 14.5317 122.813 14.5317C124.096 14.5317 125.2 14.097 126.078 13.2046C126.957 12.3123 127.407 11.1683 127.407 9.81835C127.407 8.46841 126.957 7.34727 126.078 6.45494C125.2 5.5626 124.119 5.105 122.813 5.105C121.529 5.105 120.425 5.5626 119.547 6.45494C118.669 7.34727 118.241 8.46841 118.241 9.81835C118.241 11.1683 118.669 12.3123 119.547 13.2046ZM134.209 16.4079L129.704 3.25169H132.024L135.47 13.7995L138.938 3.25169H141.258L136.753 16.4079H134.209ZM152.901 14.669C151.618 15.9732 150.019 16.6367 148.149 16.6367C146.28 16.6367 144.681 15.9732 143.375 14.669C142.091 13.3419 141.438 11.7174 141.438 9.81835C141.438 7.91928 142.091 6.29478 143.375 4.9906C144.681 3.66353 146.28 3 148.149 3C150.019 3 151.618 3.66353 152.901 4.9906C154.208 6.29478 154.861 7.91928 154.861 9.81835C154.861 11.7403 154.208 13.3419 152.901 14.669ZM144.861 13.2046C145.74 14.097 146.843 14.5317 148.127 14.5317C149.411 14.5317 150.514 14.097 151.392 13.2046C152.271 12.3123 152.721 11.1683 152.721 9.81835C152.721 8.46841 152.271 7.34727 151.392 6.45494C150.514 5.5626 149.433 5.105 148.127 5.105C146.843 5.105 145.74 5.5626 144.861 6.45494C143.983 7.34727 143.555 8.46841 143.555 9.81835C143.555 11.1683 143.983 12.3123 144.861 13.2046Z" fill="#EDEDED"/>
<path d="M173.381 3.45042V16.6066H171.264V7.22568L167.323 13.8381H167.075L163.134 7.2028V16.6066H160.994V3.45042H163.291L167.188 10.0171L171.106 3.45042H173.381ZM186.781 14.8677C185.498 16.1719 183.899 16.8354 182.029 16.8354C180.16 16.8354 178.561 16.1719 177.255 14.8677C175.971 13.5407 175.318 11.9161 175.318 10.0171C175.318 8.11801 175.971 6.49351 177.255 5.18933C178.561 3.86226 180.16 3.19873 182.029 3.19873C183.899 3.19873 185.498 3.86226 186.781 5.18933C188.088 6.49351 188.741 8.11801 188.741 10.0171C188.741 11.939 188.088 13.5407 186.781 14.8677ZM178.764 13.4034C179.642 14.2957 180.746 14.7304 182.029 14.7304C183.313 14.7304 184.417 14.2957 185.295 13.4034C186.173 12.511 186.624 11.367 186.624 10.0171C186.624 8.66714 186.173 7.546 185.295 6.65367C184.417 5.76133 183.336 5.30373 182.029 5.30373C180.723 5.30373 179.642 5.76133 178.764 6.65367C177.885 7.546 177.457 8.66714 177.457 10.0171C177.457 11.367 177.885 12.511 178.764 13.4034ZM198.357 3.45042V5.50965H194.709V16.5837H192.592V5.50965H188.921V3.45042H198.357ZM210.001 14.8677C208.717 16.1719 207.118 16.8354 205.249 16.8354C203.38 16.8354 201.781 16.1719 200.474 14.8677C199.191 13.5407 198.538 11.9161 198.538 10.0171C198.538 8.11801 199.191 6.49351 200.474 5.18933C201.781 3.86226 203.38 3.19873 205.249 3.19873C207.118 3.19873 208.717 3.86226 210.001 5.18933C211.307 6.49351 211.96 8.11801 211.96 10.0171C211.983 11.939 211.33 13.5407 210.001 14.8677ZM201.983 13.4034C202.862 14.2957 203.965 14.7304 205.249 14.7304C206.533 14.7304 207.636 14.2957 208.515 13.4034C209.393 12.511 209.843 11.367 209.843 10.0171C209.843 8.66714 209.393 7.546 208.515 6.65367C207.636 5.76133 206.555 5.30373 205.249 5.30373C203.965 5.30373 202.862 5.76133 201.983 6.65367C201.105 7.546 200.677 8.66714 200.677 10.0171C200.677 11.367 201.105 12.511 201.983 13.4034ZM221.284 16.6066L218.537 11.8246H216.014V16.6066H213.92V3.45042H219.1C220.248 3.45042 221.239 3.86226 222.05 4.68595C222.861 5.50965 223.266 6.49351 223.266 7.68328C223.266 8.52986 223.018 9.28491 222.546 9.9942C222.073 10.6806 221.464 11.184 220.699 11.5043L223.649 16.6066H221.284ZM216.037 5.48677V9.8798H219.1C219.663 9.8798 220.158 9.67387 220.541 9.23915C220.924 8.80442 221.127 8.30105 221.127 7.68328C221.127 7.06551 220.924 6.53926 220.541 6.12742C220.136 5.69269 219.663 5.48677 219.1 5.48677H216.037ZM229.392 16.8354C228.153 16.8354 227.095 16.538 226.217 15.966C225.361 15.394 224.753 14.5932 224.415 13.6093L226.239 12.511C226.757 13.9983 227.838 14.7304 229.46 14.7304C230.27 14.7304 230.856 14.5703 231.261 14.2499C231.667 13.9296 231.869 13.4949 231.869 12.9915C231.869 12.4424 231.644 12.0534 231.216 11.7789C230.788 11.4814 230.023 11.184 228.919 10.8408C228.311 10.6577 227.793 10.4747 227.41 10.3145C227.027 10.1544 226.622 9.92556 226.194 9.62812C225.766 9.33067 225.451 8.96458 225.248 8.52985C225.045 8.09513 224.933 7.56888 224.933 6.99687C224.933 5.82997 225.338 4.91476 226.149 4.22835C226.96 3.54194 227.951 3.19873 229.099 3.19873C230.135 3.19873 231.036 3.45041 231.824 3.97666C232.59 4.48003 233.198 5.18933 233.626 6.10454L231.824 7.15703C231.284 5.92149 230.383 5.3266 229.099 5.3266C228.491 5.3266 227.996 5.48676 227.613 5.78421C227.253 6.08165 227.05 6.47062 227.05 6.97399C227.05 7.45448 227.23 7.84345 227.613 8.14089C227.996 8.41546 228.671 8.7129 229.662 9.03323C230.158 9.19339 230.518 9.33067 230.743 9.39931C230.969 9.46795 231.306 9.60524 231.712 9.7654C232.14 9.94844 232.455 10.1086 232.658 10.2916C232.86 10.4747 233.086 10.6806 233.333 10.9552C233.581 11.2069 233.761 11.5272 233.851 11.8475C233.941 12.1678 234.009 12.5568 234.009 12.9915C234.009 14.1813 233.581 15.1194 232.725 15.8287C231.847 16.4922 230.743 16.8354 229.392 16.8354Z" fill="#D16527"/>
<path d="M35.6808 8.01362C32.7592 5.04534 30.2271 1.3152 31.2789 0.24662C32.3307 -0.821961 36.0022 1.75055 38.9238 4.71883C41.8455 7.68711 44.3776 11.4172 43.3258 12.4858C42.274 13.5544 38.6024 10.9819 35.6808 8.01362ZM38.6122 5.04534C35.077 1.46361 32.1554 0.03884 31.6197 0.583025C31.0841 1.12721 32.4962 4.09549 36.0217 7.68711C39.5471 11.2688 42.4688 12.7035 43.0141 12.1593C43.5498 11.6052 42.1279 8.63696 38.6122 5.04534Z" fill="#EDEDED"/>
<path d="M31.2886 0.246094L29.3604 2.20516L29.6915 2.54156L31.6198 0.582499L31.2886 0.246094Z" fill="#EDEDED"/>
<path d="M43.0074 12.1489L41.0791 14.108L41.4102 14.4444L43.3385 12.4853L43.0074 12.1489Z" fill="#EDEDED"/>
<path d="M10.4698 33.63C9.98287 33.1353 9.64201 32.4922 9.50567 31.7996C9.36933 31.107 9.4375 30.3847 9.71019 29.7416C9.97313 29.0886 10.4309 28.5345 11.0054 28.1387C11.58 27.7429 12.2618 27.5352 12.9532 27.5352C13.6447 27.5352 14.3264 27.7429 14.901 28.1387C15.4756 28.5345 15.9333 29.0886 16.1962 29.7416C16.4592 30.3946 16.5273 31.107 16.4007 31.7996C16.2741 32.4922 15.9333 33.1254 15.4366 33.63C14.7744 34.3028 13.8784 34.6788 12.9532 34.6788C12.028 34.6788 11.1321 34.3028 10.4698 33.63ZM15.1152 28.9204C14.6867 28.485 14.1413 28.1882 13.557 28.0694C12.9629 27.9507 12.3494 28.0101 11.7943 28.2475C11.2392 28.485 10.762 28.8808 10.4211 29.3854C10.09 29.8999 9.90496 30.4935 9.90496 31.107C9.90496 31.7204 10.0803 32.3141 10.4211 32.8286C10.7522 33.3431 11.2294 33.7389 11.7943 33.9664C12.3494 34.2039 12.9629 34.2633 13.557 34.1445C14.1511 34.0258 14.6964 33.729 15.1152 33.2936C15.6898 32.7099 16.0112 31.9282 16.0112 31.107C16.0014 30.2858 15.6801 29.5041 15.1152 28.9204Z" fill="#D16527"/>
<path d="M34.6886 9.03299C31.767 6.06471 29.2349 2.33457 30.2867 1.26599L30.6178 1.6024C30.0822 2.14658 31.4943 5.11486 35.0197 8.70648C38.5452 12.2981 41.4668 13.7229 42.0122 13.1787L42.3433 13.5151C41.3402 14.5045 37.8343 12.2387 34.6886 9.03299Z" fill="#EDEDED"/>
<path d="M41.0757 14.1084C40.5303 14.6526 37.6184 13.2179 34.0832 9.63617C30.5578 6.05444 29.1457 3.08616 29.6813 2.53208L29.3502 2.19568L22.572 9.08209C22.1337 9.52733 22.2701 10.4178 22.981 11.7338C22.981 11.7338 23.0881 11.991 23.2342 11.9613C23.3511 11.9415 23.4095 11.6942 23.4095 11.6942C23.4582 11.5359 23.6432 11.1797 23.838 11.1599C24.0133 11.1401 24.2373 11.3479 24.4808 11.7239C25.5034 13.2674 26.6818 14.7119 27.9868 16.018C29.2333 17.3042 30.5967 18.4619 32.0673 19.481C32.6516 19.8767 32.6906 20.1043 32.6711 20.1933C32.6419 20.3813 32.3303 20.5396 32.1744 20.5891C32.1744 20.5891 31.9602 20.6485 31.9212 20.7276C31.8628 20.8563 32.1452 20.9849 32.1452 20.9849C33.3626 21.6379 34.2001 21.7566 34.6189 21.3312L41.3971 14.4448L41.0757 14.1084ZM32.7977 20.787C32.973 20.6683 33.0899 20.4803 33.1288 20.2626C33.1873 19.8767 32.9146 19.4909 32.3205 19.0951C30.8792 18.0958 29.5352 16.9579 28.3179 15.6915C27.0323 14.4052 25.8832 13.0002 24.8801 11.4765C24.5197 10.9026 24.1594 10.6454 23.7893 10.6949C23.6627 10.7146 23.5556 10.7641 23.4485 10.8433C23.3511 10.9125 23.2634 11.0115 23.1953 11.1104C22.796 10.2694 22.6791 9.64606 22.9128 9.41849L29.1359 3.09606C29.3112 4.68903 31.4148 7.56826 33.7619 9.96268C36.1186 12.3571 38.9526 14.4844 40.5206 14.6625L34.2975 20.9849C34.0832 21.2125 33.5379 21.1333 32.7977 20.787Z" fill="#EDEDED"/>
<path d="M28.8637 14.95C28.4352 14.5146 28.143 13.9506 28.0164 13.3471C27.8996 12.7435 27.958 12.1103 28.1917 11.5364C28.4255 10.9626 28.815 10.4778 29.3214 10.1315C29.8279 9.78515 30.4219 9.60706 31.0355 9.60706C31.649 9.60706 32.2431 9.79505 32.7495 10.1315C33.2559 10.4778 33.6455 10.9626 33.8792 11.5364C34.1129 12.1103 34.1714 12.7336 34.0545 13.3471C33.9376 13.9506 33.6455 14.5146 33.2072 14.95C32.6326 15.5337 31.8438 15.8602 31.0355 15.8602C30.2271 15.8602 29.4383 15.5337 28.8637 14.95ZM32.8858 10.8537C32.5158 10.4778 32.058 10.2304 31.5516 10.1315C31.0452 10.0325 30.5193 10.082 30.0421 10.2799C29.5649 10.4778 29.1559 10.8241 28.8735 11.2594C28.591 11.6947 28.4352 12.2092 28.4352 12.7336C28.4352 13.258 28.591 13.7725 28.8735 14.2079C29.1559 14.6432 29.5649 14.9895 30.0421 15.1874C30.5193 15.3853 31.0452 15.4447 31.5516 15.3358C32.058 15.2369 32.5255 14.9796 32.8858 14.6136C33.3728 14.1188 33.6455 13.4361 33.6455 12.7336C33.6552 12.0312 33.3728 11.3583 32.8858 10.8537Z" fill="#EDEDED"/>
<path d="M9.80729 34.3527C9.18401 33.7195 8.7555 32.9081 8.5802 32.0177C8.4049 31.1371 8.49255 30.2169 8.83341 29.3858C9.17427 28.5547 9.74886 27.8423 10.489 27.3377C11.2292 26.8331 12.0959 26.5659 12.9821 26.5659C13.8684 26.5659 14.7351 26.8331 15.4753 27.3377C16.2154 27.8423 16.79 28.5547 17.1309 29.3858C17.4717 30.2169 17.5594 31.1371 17.3841 32.0177C17.2088 32.8982 16.7803 33.7096 16.157 34.3527C15.3194 35.2036 14.1703 35.6884 12.9821 35.6884C11.794 35.6884 10.6546 35.2036 9.80729 34.3527ZM15.8259 28.238C15.261 27.6642 14.5501 27.2783 13.771 27.12C12.9919 26.9617 12.1836 27.0408 11.4531 27.3575C10.7227 27.6642 10.0897 28.1886 9.65147 28.8614C9.21322 29.5342 8.96975 30.3257 8.96975 31.1272C8.96975 31.9385 9.20348 32.7202 9.65147 33.393C10.0897 34.0658 10.7227 34.5902 11.4531 34.8969C12.1836 35.2036 12.9919 35.2828 13.771 35.1344C14.5501 34.976 15.2708 34.5902 15.8259 34.0163C16.5758 33.2445 16.9945 32.2155 16.9945 31.1272C17.0043 30.0487 16.5758 29.0098 15.8259 28.238Z" fill="#EDEDED"/>
<path d="M29.4973 14.3063C29.1954 13.9996 28.9812 13.6039 28.9033 13.1685C28.8156 12.743 28.8643 12.2879 29.0299 11.8921C29.1954 11.4865 29.4779 11.1402 29.8382 10.9027C30.1985 10.6554 30.6173 10.5267 31.0458 10.5267C31.4743 10.5267 31.9028 10.6554 32.2534 10.9027C32.6138 11.1501 32.8962 11.4964 33.0617 11.8921C33.2273 12.2978 33.2663 12.743 33.1884 13.1685C33.1007 13.594 32.8962 13.9897 32.5943 14.3063C32.3898 14.5141 32.1463 14.6823 31.8834 14.7912C31.6204 14.9 31.3282 14.9594 31.0458 14.9594C30.7537 14.9594 30.4712 14.9 30.2083 14.7912C29.9356 14.6724 29.7019 14.5042 29.4973 14.3063ZM32.2437 11.5063C32.0002 11.2589 31.6983 11.1006 31.3672 11.0313C31.0361 10.9621 30.6855 11.0017 30.3738 11.1303C30.0622 11.2589 29.7895 11.4865 29.6045 11.7734C29.4194 12.0603 29.3123 12.3967 29.3123 12.743C29.3123 13.0893 29.4097 13.4258 29.6045 13.7127C29.7993 13.9996 30.0622 14.2272 30.3738 14.3558C30.6855 14.4844 31.0361 14.524 31.3672 14.4548C31.6983 14.3855 32.01 14.2173 32.2437 13.9798C32.4092 13.8215 32.5359 13.6236 32.6235 13.4159C32.7112 13.2081 32.7598 12.9706 32.7598 12.743C32.7598 12.5155 32.7209 12.2879 32.6332 12.0702C32.5456 11.8526 32.419 11.6646 32.2437 11.5063Z" fill="#EDEDED"/>
<path d="M29.2659 16.9775C27.4837 18.7683 25.7015 20.5592 23.9388 22.3599C22.8188 23.5077 21.6988 24.6653 20.7639 25.9714C19.3713 27.9007 18.524 30.1566 18.115 32.5016C18.0565 32.8479 18.5727 32.9765 18.6311 32.6401C19.0109 30.3347 19.8972 28.1481 21.2216 26.2385C22.1663 24.8929 23.3544 23.7254 24.5036 22.5479C26.2079 20.7967 27.9219 19.0751 29.6457 17.3535C29.6944 17.304 29.7236 17.2347 29.7236 17.1655C29.7236 17.0962 29.6944 17.0269 29.6457 16.9775C29.597 16.928 29.5288 16.8983 29.4607 16.8983C29.3827 16.9082 29.3146 16.928 29.2659 16.9775Z" fill="#EDEDED"/>
<path d="M26.5654 14.2473C24.8709 15.9986 23.1666 17.74 21.4526 19.4715C20.3521 20.5797 19.2516 21.7175 18.005 22.6575C16.1157 24.102 13.905 24.9628 11.5774 25.3685C11.2366 25.4278 11.3827 25.9424 11.7138 25.8929C13.944 25.5268 16.0573 24.666 17.9271 23.3797C19.2906 22.4299 20.4592 21.2327 21.6279 20.0652C23.4101 18.2743 25.1728 16.4636 26.9258 14.653C27.1692 14.3858 26.7992 14 26.5654 14.2473Z" fill="#EDEDED"/>
<path d="M8.94928 35.2322C8.26756 34.5298 7.78062 33.6591 7.51767 32.7092C7.25473 31.7594 7.23525 30.76 7.45924 29.8003L7.90723 29.9091C7.70271 30.7897 7.72219 31.7099 7.96566 32.5905C8.20913 33.4612 8.65711 34.2626 9.2804 34.9057C10.5172 36.1623 12.4066 36.6966 14.2082 36.3008L14.3056 36.756C12.3481 37.1814 10.2932 36.5977 8.94928 35.2322Z" fill="#EDEDED"/>
<path d="M11.8351 25.8135C12.2344 25.4177 12.7505 25.012 12.8382 24.4283C12.9161 23.9533 12.4681 23.4685 12.0201 23.419C11.4455 23.3498 11.0365 23.795 10.6762 24.1908C9.84838 25.0813 8.99137 25.9421 8.13435 26.8029C7.53055 27.4163 6.90726 28.0199 6.30346 28.6333C5.98208 28.9598 5.41723 29.3853 5.37827 29.8899C5.3588 30.1471 5.42697 30.4044 5.56331 30.6122C5.70939 30.8298 5.91391 30.9783 6.15738 31.0574C6.78066 31.2751 7.45264 30.4638 7.82271 30.0878C7.86167 30.0383 7.89088 29.969 7.89088 29.8998C7.89088 29.8305 7.86167 29.7712 7.81297 29.7217C7.76428 29.6722 7.70585 29.6425 7.63768 29.6425C7.5695 29.6425 7.50133 29.6623 7.45264 29.7019C7.15073 30.0086 6.54693 30.7903 6.07947 30.4143C5.61201 30.0482 6.07947 29.6326 6.34241 29.3556C6.97544 28.6729 7.65715 28.0298 8.31939 27.3669C9.26405 26.417 10.2087 25.4672 11.1242 24.4876C11.2605 24.3392 11.3968 24.2007 11.5527 24.082C11.8156 23.8841 12.361 23.9632 12.2928 24.4184C12.2344 24.8141 11.7085 25.1802 11.4455 25.4375C11.4163 25.4672 11.3968 25.4869 11.3871 25.5265C11.3774 25.5562 11.3676 25.5958 11.3676 25.6255C11.3676 25.665 11.3774 25.6947 11.3871 25.7244C11.3968 25.7541 11.4163 25.7838 11.4455 25.8135C11.465 25.8431 11.4942 25.8629 11.5332 25.8728C11.5624 25.8827 11.6014 25.8926 11.6306 25.8926C11.6695 25.8926 11.6988 25.8827 11.728 25.8728C11.7767 25.853 11.8059 25.8431 11.8351 25.8135Z" fill="#EDEDED"/>
<path d="M18.621 32.6901C18.8743 32.3933 19.1567 32.1262 19.4781 31.8986C19.8384 31.6809 20.2474 32.136 20.189 32.4922C20.1306 32.6901 20.0137 32.8583 19.8579 32.987C18.9522 33.9566 17.9588 34.857 17.0336 35.8167C16.3227 36.5489 15.6312 37.3009 14.9008 38.0132C14.5697 38.3398 14.2775 38.6267 13.8296 38.2606C13.255 37.7758 14.0633 37.0931 14.4041 36.7468C14.6476 36.4994 14.2678 36.1135 14.0341 36.3609C13.664 36.7468 12.9823 37.3404 13.0894 37.944C13.1381 38.2111 13.2744 38.4585 13.4692 38.6465C13.664 38.8345 13.9172 38.9532 14.1802 38.9928C14.6963 39.062 15.0566 38.6168 15.3878 38.2903C16.0208 37.6768 16.6149 37.0238 17.2284 36.3906C18.0757 35.5199 18.9229 34.6393 19.7897 33.8082C20.2182 33.3926 20.7441 32.987 20.7246 32.324C20.7051 31.7799 20.1792 31.3544 19.6923 31.3049C19.108 31.2456 18.5918 31.9481 18.2412 32.3141C18.0075 32.5615 18.3873 32.9474 18.621 32.6901Z" fill="#EDEDED"/>
<path d="M28.3507 16.3542C26.403 18.4024 24.3286 20.312 22.3809 22.37C21.4459 23.3198 20.5597 24.3191 19.7319 25.3679C18.9918 26.3079 18.5633 27.4556 18.4854 28.6528C18.6801 27.9701 19.3131 26.8323 19.8585 26.0803C20.7934 24.8633 21.7965 23.7156 22.8678 22.6173C24.7766 20.6088 26.8218 18.7388 28.7111 16.7302C28.9546 16.4829 28.5845 16.097 28.3507 16.3542Z" fill="#EDEDED"/>
<path d="M34.7521 3.75908C33.9243 3.96686 32.7265 2.73008 32.7265 2.73008C32.6096 2.79934 34.0412 4.50115 34.9469 4.19443C35.911 3.87781 35.3657 2.5223 35.2585 2.54208C35.2585 2.55198 35.5799 3.56119 34.7521 3.75908Z" fill="#EDEDED"/>
<path d="M39.9986 9.09178C39.8039 9.9328 41.031 11.1696 41.031 11.1696C40.9628 11.2883 39.278 9.82396 39.5701 8.8939C39.8818 7.91437 41.216 8.47834 41.1965 8.57728C41.1965 8.58718 40.1934 8.26067 39.9986 9.09178Z" fill="#D16527"/>
<path d="M30.2709 13.5153C31.0597 14.2079 32.0238 13.634 32.2673 13.3273C32.0433 13.9606 30.8941 14.5542 30.0956 13.7924C29.4041 13.1294 29.6573 12.3973 29.9203 12.14C29.8423 12.3775 29.8229 12.6347 29.891 12.8821C29.9495 13.1294 30.0858 13.3471 30.2709 13.5153Z" fill="#D16527"/>
<path d="M11.6163 32.5118C13.0869 33.7882 14.8593 32.7295 15.3073 32.1655C14.8885 33.3429 12.746 34.4412 11.2754 33.0263C9.98991 31.7994 10.4574 30.4439 10.9541 29.969C10.9638 29.969 10.3989 31.4432 11.6163 32.5118Z" fill="#EDEDED"/>
<path d="M16.5565 25.2093C17.842 24.5068 19.0204 23.6163 20.0527 22.5675C19.4586 23.3887 18.5821 24.5958 16.6344 25.6446C15.8455 26.0602 14.2289 26.3867 12.9531 26.0701C14.784 25.9513 15.9332 25.5358 16.5565 25.2093Z" fill="#EDEDED"/>
<path d="M32.5479 18.2344L33.3659 18.7885L36.8621 15.2364C37.427 14.6625 35.9467 16.0379 35.1676 15.5728L32.5479 18.2344Z" fill="#EDEDED"/>
<path d="M41.612 13.0203L42.1671 12.4563C42.1671 12.4563 41.1348 11.4076 40.531 12.021L40.083 12.4761C40.5992 12.7532 41.0764 13.0302 41.612 13.0203Z" fill="#EDEDED"/>
<path d="M40.6023 14.0487L41.1087 13.5342C40.7971 13.465 40.5049 13.3561 40.2225 13.2077C40.0569 13.1187 39.9011 13.0296 39.7356 12.9307C39.7063 12.9307 39.6869 12.9208 39.6577 12.9109L39.1025 13.4749C39.5797 13.742 40.0764 13.93 40.6023 14.0487Z" fill="#EDEDED"/>
<path d="M38.6747 13.9209L33.6689 18.9967C33.6689 18.9967 34.9253 19.8179 35.9576 18.7691L40.1063 14.5541C39.5999 14.4057 39.1227 14.188 38.6747 13.9209Z" fill="#EDEDED"/>
<path d="M39.6948 12.2882C39.8701 12.1002 40.0356 11.9122 40.2109 11.7242C40.5421 11.3581 40.0259 11.0613 39.7922 11.2889C39.5682 11.5165 39.3831 11.7143 39.1494 11.9518C39.276 12.0211 39.6266 12.2486 39.6948 12.2882Z" fill="#EDEDED"/>
<path d="M38.7495 13.2677C38.9151 13.0995 39.0806 12.9313 39.2754 12.7235C39.0904 12.6146 38.9053 12.5157 38.7203 12.397L38.2236 12.9214C38.3795 13.0401 38.7495 13.2677 38.7495 13.2677Z" fill="#EDEDED"/>
<path d="M37.7875 13.3663L36.3851 14.8208C35.9274 15.2957 37.6804 14.3558 38.1478 13.8808L38.3231 13.7027C38.1381 13.5939 37.9628 13.4851 37.7875 13.3663Z" fill="#EDEDED"/>
<path d="M38.8872 11.8132C39.0917 11.6054 39.2865 11.4174 39.4715 11.2393C39.8319 10.9029 39.6079 10.7743 39.3157 11.0612L38.7119 11.6746C38.7801 11.7241 38.8288 11.7736 38.8872 11.8132Z" fill="#EDEDED"/>
<path d="M37.4925 13.1586C37.4536 13.129 37.4049 13.0993 37.3659 13.0597L35.7006 14.7615C35.1357 15.3354 35.798 14.999 36.3628 14.4152C36.3628 14.4152 36.879 13.871 37.5315 13.1883C37.5217 13.1784 37.5023 13.1685 37.4925 13.1586Z" fill="#EDEDED"/>
<path d="M37.981 12.7435C38.1465 12.5654 38.3023 12.4071 38.4679 12.2388L38.2926 12.1201L37.8057 12.6049C37.8544 12.6643 37.9225 12.7039 37.981 12.7435Z" fill="#EDEDED"/>
<path d="M38.3302 11.4067L39.119 10.6053L38.8658 10.2986C38.5834 10.5756 38.3107 10.8527 38.0088 11.1594C38.1062 11.2484 38.223 11.3276 38.3302 11.4067Z" fill="#EDEDED"/>
<path d="M37.4161 12.3372L37.9615 11.7831C37.8544 11.704 37.7472 11.6248 37.6498 11.5358L37.0947 12.0997C37.2019 12.1789 37.309 12.2679 37.4161 12.3372Z" fill="#EDEDED"/>
<path d="M36.6869 12.5061C35.2163 14.0001 33.8918 15.3557 33.8918 15.3557C32.9472 16.3055 31.4377 18.3833 32.3823 17.4236L36.9985 12.7634C36.9011 12.6743 36.794 12.5853 36.6869 12.5061Z" fill="#EDEDED"/>
<path d="M30.8325 2.62179L31.6214 1.82036L31.2416 1.38501C31.0468 1.5829 30.8715 1.76099 30.6572 1.96877C30.6767 2.19634 30.7351 2.41401 30.8325 2.62179Z" fill="#EDEDED"/>
<path d="M29.8774 3.58057L30.4325 3.0166C30.3351 2.8385 30.2378 2.6604 30.1501 2.47241L29.6924 2.93744C29.7216 3.16501 29.78 3.38268 29.8774 3.58057Z" fill="#EDEDED"/>
<path d="M29.2174 3.43286L24.1143 8.61746L24.348 9.20122C25.8478 7.6874 27.815 5.66897 29.5388 3.92757C29.4316 3.76927 29.3245 3.60106 29.2174 3.43286Z" fill="#EDEDED"/>
<path d="M29.5765 4.36255L27.1418 6.84601C26.5088 7.48914 27.3366 7.05379 27.9696 6.41066L29.7031 4.64948C29.6544 4.56043 29.6155 4.46149 29.5765 4.36255Z" fill="#EDEDED"/>
<path d="M30.1627 4.18472L30.6399 3.6999L30.5425 3.50201L30.5036 3.41296L30.0361 3.88789C30.0653 3.99673 30.1043 4.09567 30.1627 4.18472Z" fill="#EDEDED"/>
<path d="M31.1061 3.23467L31.8852 2.43324L31.6612 2.23535L30.9697 2.93784C31.0087 3.04668 31.0574 3.14562 31.1061 3.23467Z" fill="#EDEDED"/>
<path d="M31.3288 3.73958C31.621 3.44275 31.8839 3.17561 32.1566 2.89857L32.0592 2.70068L31.2314 3.5417C31.2704 3.60106 31.2899 3.68022 31.3288 3.73958Z" fill="#EDEDED"/>
<path d="M30.3835 4.70884L30.8997 4.18444C30.8607 4.12508 30.8218 4.06571 30.7828 4.00635L30.2861 4.52085C30.2959 4.55053 30.3446 4.64947 30.3835 4.70884Z" fill="#EDEDED"/>
<path d="M29.8499 4.95679L28.1651 6.67839C27.5613 7.29183 28.4378 6.68828 29.0416 6.07484L29.9765 5.12499C29.9181 5.07552 29.8791 5.01615 29.8499 4.95679Z" fill="#EDEDED"/>
<path d="M7.8877 8.10261C4.96606 11.0709 1.29453 13.6434 0.242744 12.5748C-0.809045 11.5062 1.72304 7.7761 4.64468 4.80782C7.56632 1.83954 11.2378 -0.732972 12.2896 0.335609C13.3414 1.40419 10.8093 5.14422 7.8877 8.10261ZM4.96606 5.13433C1.44062 8.71605 0.0284912 11.6843 0.564125 12.2384C1.09976 12.7925 4.0214 11.3479 7.55658 7.7662C11.082 4.18448 12.4941 1.2162 11.9585 0.66212C11.4229 0.108041 8.50124 1.5526 4.96606 5.13433Z" fill="#EDEDED"/>
<path d="M0.573307 12.2391L0.242188 12.5755L2.17047 14.5346L2.50159 14.1982L0.573307 12.2391Z" fill="#EDEDED"/>
<path d="M12.2921 0.335327L11.9609 0.671732L13.8892 2.6308L14.2203 2.29439L12.2921 0.335327Z" fill="#EDEDED"/>
<path d="M33.1016 33.7287C32.6147 34.2234 31.9817 34.5697 31.3 34.7082C30.6182 34.8467 29.9073 34.7775 29.2743 34.5004C28.6315 34.2333 28.0862 33.7683 27.6966 33.1845C27.3071 32.6007 27.1025 31.9081 27.1025 31.2057C27.1025 30.5032 27.3071 29.8106 27.6966 29.2268C28.0862 28.643 28.6315 28.178 29.2743 27.9109C29.917 27.6437 30.6182 27.5745 31.3 27.7031C31.9817 27.8416 32.605 28.178 33.1016 28.6826C33.7639 29.3554 34.1339 30.2657 34.1339 31.2057C34.1339 32.1456 33.7639 33.0559 33.1016 33.7287ZM28.466 29.0091C28.0375 29.4445 27.7453 29.9986 27.6284 30.5922C27.5116 31.1958 27.57 31.8191 27.8037 32.3831C28.0375 32.947 28.427 33.4319 28.9237 33.7782C29.4301 34.1146 30.0144 34.3026 30.6182 34.3026C31.222 34.3026 31.8064 34.1245 32.3128 33.7782C32.8095 33.4418 33.2088 32.9569 33.4328 32.3831C33.6665 31.8191 33.7249 31.1958 33.6081 30.5922C33.4912 29.9887 33.199 29.4346 32.7705 29.0091C32.1959 28.4254 31.4266 28.0989 30.6182 28.0989C29.8099 28.0989 29.0308 28.4254 28.466 29.0091Z" fill="#D16527"/>
<path d="M8.89105 9.12125C5.96941 12.0895 2.29788 14.662 1.24609 13.5935L1.57721 13.2571C2.12258 13.8012 5.03448 12.3666 8.56967 8.78485C12.0951 5.20312 13.5072 2.23484 12.9716 1.68077L13.3027 1.34436C14.2766 2.36347 12.0367 5.91551 8.89105 9.12125Z" fill="#EDEDED"/>
<path d="M13.8896 2.63131C14.4252 3.18539 13.0131 6.15367 9.48764 9.7354C5.96219 13.3171 3.04055 14.7518 2.49518 14.2076L2.16406 14.544L8.94226 21.4304C9.38051 21.8757 10.257 21.7371 11.5523 21.0149C11.5523 21.0149 11.8055 20.906 11.7763 20.7576C11.7568 20.6389 11.5133 20.5795 11.5133 20.5795C11.3575 20.53 11.0069 20.342 10.9874 20.1442C10.9679 19.9661 11.1724 19.7385 11.5425 19.4911C13.0618 18.4522 14.4739 17.2649 15.7594 15.9391C17.0255 14.6726 18.1649 13.2874 19.168 11.7934C19.5575 11.1997 19.7815 11.1602 19.8692 11.18C20.0542 11.2096 20.21 11.5263 20.2587 11.6846C20.2587 11.6846 20.3172 11.9022 20.3951 11.9418C20.5217 12.0012 20.6483 11.7142 20.6483 11.7142C21.2911 10.4775 21.4079 9.62656 20.9892 9.20111L14.211 2.3147L13.8896 2.63131ZM20.4633 11.0414C20.4048 10.9524 20.3269 10.8732 20.2393 10.8238C20.1516 10.7644 20.0542 10.7248 19.9471 10.705C19.5673 10.6457 19.1875 10.9128 18.7979 11.5263C17.8143 12.9906 16.6943 14.356 15.4478 15.5928C14.1817 16.8988 12.7988 18.0664 11.2991 19.0855C10.7342 19.4516 10.481 19.8177 10.5297 20.1936C10.5492 20.3223 10.5979 20.4311 10.6758 20.5399C10.7439 20.6488 10.8413 20.7279 10.9387 20.7972C10.1109 21.2028 9.49737 21.3117 9.27338 21.0841L3.06003 14.7617C4.62798 14.5836 7.46197 12.4464 9.81876 10.0619C12.1755 7.66749 14.2694 4.78826 14.4447 3.19529L20.6678 9.51772C20.882 9.7255 20.7944 10.2796 20.4633 11.0414Z" fill="#EDEDED"/>
<path d="M14.7043 15.0382C14.2758 15.4736 13.7206 15.7704 13.1266 15.899C12.5325 16.0177 11.9092 15.9584 11.3444 15.7209C10.7795 15.4835 10.3023 15.0877 9.96147 14.5732C9.62061 14.0587 9.44531 13.4551 9.44531 12.8318C9.44531 12.2084 9.63035 11.6049 9.96147 11.0904C10.3023 10.5759 10.7795 10.1801 11.3444 9.94266C11.9092 9.7052 12.5228 9.64583 13.1266 9.76457C13.7206 9.8833 14.2758 10.1801 14.7043 10.6254C15.2788 11.2091 15.6002 12.0106 15.6002 12.8318C15.61 13.653 15.2886 14.4446 14.7043 15.0382ZM10.6821 10.9519C10.3121 11.3279 10.0686 11.7929 9.97121 12.3074C9.87382 12.8219 9.92251 13.3562 10.1173 13.841C10.3121 14.3258 10.6529 14.7414 11.0814 15.0283C11.5099 15.3152 12.0164 15.4736 12.5325 15.4736C13.0487 15.4736 13.5551 15.3152 13.9836 15.0283C14.4121 14.7315 14.753 14.3258 14.9477 13.841C15.1425 13.3562 15.2009 12.8219 15.0938 12.3074C14.9964 11.7929 14.7432 11.318 14.3829 10.9519C13.8959 10.4572 13.224 10.1801 12.5325 10.1801C11.8411 10.1801 11.1788 10.4473 10.6821 10.9519Z" fill="#EDEDED"/>
<path d="M33.8138 34.3918C33.1906 35.025 32.392 35.4604 31.5155 35.6385C30.639 35.8165 29.743 35.7275 28.925 35.3812C28.1069 35.0349 27.4057 34.4511 26.909 33.6992C26.4124 32.9472 26.1494 32.0666 26.1494 31.1662C26.1494 30.2659 26.4124 29.3853 26.909 28.6333C27.4057 27.8813 28.0972 27.2976 28.925 26.9513C29.743 26.605 30.6487 26.5159 31.5155 26.694C32.3822 26.8721 33.1808 27.3075 33.8138 27.9407C34.6514 28.7916 35.1286 29.9591 35.1286 31.1662C35.1286 32.3832 34.6514 33.5409 33.8138 34.3918ZM27.7953 28.2771C27.2304 28.851 26.8506 29.5733 26.6948 30.3648C26.539 31.1563 26.6169 31.9776 26.9285 32.7196C27.2304 33.4617 27.7466 34.1048 28.4088 34.5501C29.0711 34.9953 29.8502 35.2427 30.639 35.2427C31.4376 35.2427 32.2069 35.0052 32.8692 34.5501C33.5314 34.0949 34.0476 33.4617 34.3495 32.7196C34.6514 31.9776 34.7293 31.1563 34.5832 30.3648C34.4274 29.5733 34.0476 28.8411 33.4827 28.2771C32.7231 27.5153 31.7103 27.0898 30.639 27.0898C29.5775 27.0898 28.5549 27.5153 27.7953 28.2771Z" fill="#EDEDED"/>
<path d="M14.0796 14.3952C13.7777 14.7019 13.3881 14.9196 12.9596 14.9988C12.5409 15.0878 12.0929 15.0384 11.7033 14.8701C11.304 14.7019 10.9632 14.415 10.7294 14.0489C10.486 13.6828 10.3594 13.2574 10.3594 12.822C10.3594 12.3867 10.486 11.9513 10.7294 11.5951C10.9729 11.2291 11.3138 10.9421 11.7033 10.7739C12.1026 10.6057 12.5409 10.5661 12.9596 10.6453C13.3784 10.7343 13.768 10.9421 14.0796 11.2488C14.2841 11.4566 14.4399 11.704 14.5568 11.9711C14.6639 12.2383 14.7224 12.5252 14.7224 12.822C14.7224 13.1189 14.6639 13.4058 14.5568 13.6729C14.4399 13.9401 14.2841 14.1874 14.0796 14.3952ZM11.3138 11.5853C11.0703 11.8326 10.9047 12.1393 10.8463 12.4757C10.7781 12.8121 10.8171 13.1683 10.9437 13.485C11.0703 13.8016 11.2943 14.0786 11.5767 14.2666C11.8591 14.4546 12.1903 14.5634 12.5311 14.5634C12.872 14.5634 13.2031 14.4645 13.4855 14.2666C13.768 14.0786 13.9919 13.8016 14.1186 13.485C14.2452 13.1683 14.2841 12.8121 14.2159 12.4757C14.1478 12.1393 13.9822 11.8227 13.7485 11.5853C13.5927 11.4269 13.3979 11.2983 13.1934 11.2093C12.9888 11.1202 12.7649 11.0806 12.5311 11.0806C12.3071 11.0806 12.0831 11.1301 11.8689 11.2093C11.6644 11.2983 11.4793 11.4269 11.3138 11.5853Z" fill="#EDEDED"/>
<path d="M21.6104 19.6395L21.6493 19.5801C21.7272 19.4416 21.8246 19.313 21.9415 19.214C20.3151 17.5716 18.6985 15.9291 17.1013 14.2669C17.0526 14.2174 16.9844 14.1877 16.9163 14.1877C16.8481 14.1877 16.7799 14.2174 16.7312 14.2669C16.6825 14.3164 16.6533 14.3856 16.6533 14.4549C16.6533 14.5242 16.6825 14.5934 16.7312 14.6429C18.3381 16.3051 19.9742 17.9772 21.6104 19.6395Z" fill="#EDEDED"/>
<path d="M32.1398 25.4371C29.8707 25.0513 27.7184 24.1509 25.8388 22.8053C25.4688 22.5381 25.1182 22.2512 24.7676 21.9543C24.641 22.0731 24.5241 22.2017 24.4072 22.3204C24.787 22.6469 25.1669 22.9735 25.5759 23.2703C27.4749 24.6852 29.6954 25.546 32.0035 25.9615C32.3346 26.0209 32.4807 25.4965 32.1398 25.4371Z" fill="#EDEDED"/>
<path d="M19.2826 21.9253C17.666 20.2729 16.0396 18.6305 14.4035 16.9979C14.16 16.7506 13.7802 17.1364 14.0236 17.3739C15.65 19.0065 17.2667 20.639 18.8736 22.2617C19.0002 22.1528 19.1365 22.044 19.2826 21.9253Z" fill="#EDEDED"/>
<path d="M25.4771 32.4623C25.1167 30.1965 24.2695 28.0495 23.0034 26.1498C22.7405 25.7639 22.4581 25.3879 22.1659 25.0317L22.0782 25.1406C21.9906 25.2395 21.8835 25.3286 21.7666 25.3879C21.9516 25.6155 22.1269 25.8431 22.3022 26.0706C23.7241 28 24.5714 30.2361 24.9707 32.6009C25.0194 32.9471 25.5355 32.7987 25.4771 32.4623Z" fill="#EDEDED"/>
<path d="M34.6796 35.2719C33.9882 35.9645 33.1311 36.4592 32.1962 36.7264C31.2613 36.9935 30.2777 37.0133 29.333 36.7857L29.4401 36.3306C30.3069 36.5384 31.2126 36.5186 32.0793 36.2712C32.9364 36.0239 33.7252 35.5688 34.3582 34.9355C35.5951 33.6789 36.1209 31.7595 35.7314 29.929L36.1794 29.8301C36.6079 31.8188 36.0236 33.9065 34.6796 35.2719Z" fill="#EDEDED"/>
<path d="M25.4078 32.3434C25.0182 31.9378 24.619 31.4134 24.0444 31.3243C23.5769 31.2452 23.0997 31.7003 23.051 32.1555C22.9828 32.7392 23.4211 33.1548 23.8106 33.5209C24.6871 34.3619 25.5344 35.2326 26.3817 36.1033C26.9855 36.7167 27.5795 37.3499 28.1834 37.9634C28.495 38.2899 28.9235 38.8638 29.4104 38.9033C29.6637 38.9231 29.9169 38.8539 30.1214 38.7153C30.3356 38.5669 30.4817 38.3592 30.5596 38.1118C30.7739 37.4786 29.9753 36.7959 29.6052 36.4199C29.5565 36.3803 29.4883 36.3506 29.4202 36.3506C29.352 36.3506 29.2936 36.3803 29.2449 36.4298C29.1962 36.4792 29.167 36.5386 29.167 36.6079C29.167 36.6771 29.1864 36.7464 29.2254 36.7959C29.5273 37.1026 30.2967 37.716 29.9266 38.191C29.5663 38.6659 29.1572 38.191 28.8845 37.9238C28.2126 37.2807 27.5795 36.5881 26.927 35.9153C25.9921 34.9555 25.0572 33.9958 24.0931 33.0657C23.947 32.9272 23.8106 32.7887 23.6938 32.6205C23.499 32.3533 23.5769 31.7993 24.0249 31.8685C24.4144 31.9279 24.7748 32.4622 25.028 32.7293C25.0767 32.7788 25.1448 32.8085 25.213 32.8085C25.2812 32.8085 25.3494 32.7788 25.3981 32.7293C25.4468 32.6798 25.476 32.6106 25.476 32.5413C25.4857 32.4721 25.4565 32.4028 25.4078 32.3434Z" fill="#EDEDED"/>
<path d="M32.1784 25.4473C31.8862 25.19 31.6233 24.9031 31.3993 24.5766C31.1851 24.2105 31.633 23.7949 31.9836 23.8543C32.1784 23.9137 32.344 24.0324 32.4706 24.1907C33.425 25.1109 34.3112 26.1201 35.2461 27.06C35.9668 27.7823 36.7069 28.4848 37.4081 29.2269C37.7295 29.5633 38.0119 29.8601 37.6516 30.3152C37.1744 30.899 36.5024 30.0778 36.1616 29.7315C35.9181 29.4841 35.5383 29.87 35.7818 30.1075C36.1616 30.4834 36.7459 31.176 37.34 31.0672C37.6029 31.0177 37.8464 30.8792 38.0314 30.6813C38.2165 30.4834 38.3333 30.2262 38.3723 29.959C38.4405 29.4347 38.0022 29.0686 37.6808 28.7322C37.077 28.089 36.4343 27.4855 35.811 26.8621C34.954 26.0013 34.0872 25.1405 33.2692 24.26C32.8601 23.8246 32.4608 23.2903 31.8083 23.3101C31.2727 23.3299 30.8539 23.8642 30.8052 24.3589C30.7468 24.9526 31.4383 25.4769 31.7986 25.8331C32.0518 26.0607 32.4316 25.6847 32.1784 25.4473Z" fill="#EDEDED"/>
<path d="M21.2799 20.1244C19.673 18.4819 18.1148 16.7801 16.4787 15.1772C16.2352 14.9398 15.8554 15.3158 16.0988 15.5532C17.7447 17.166 19.3126 18.8678 20.9293 20.5202C21.0462 20.3915 21.163 20.2629 21.2799 20.1244Z" fill="#EDEDED"/>
<path d="M25.6712 24.1809C25.0966 23.7356 24.5415 23.2607 24.0058 22.7759C23.889 22.9144 23.7624 23.0529 23.6455 23.1914C24.0448 23.5575 24.4538 23.9137 24.9602 24.3194C25.8854 25.0615 27.0151 25.5067 28.1935 25.5859C27.541 25.388 26.4113 24.7448 25.6712 24.1809Z" fill="#EDEDED"/>
<path d="M3.70199 9.06237C3.9065 9.90338 2.68916 11.1204 2.68916 11.1204C2.75733 11.2391 4.4324 9.78465 4.1305 8.86448C3.81886 7.88495 2.48464 8.43903 2.50412 8.54786C2.51386 8.54786 3.50721 8.23125 3.70199 9.06237Z" fill="#D16527"/>
<path d="M8.94889 3.72954C9.77669 3.92742 10.994 2.68075 10.994 2.68075C11.1109 2.75001 9.66957 4.46171 8.75412 4.16489C7.78998 3.84827 8.34509 2.49276 8.44248 2.51254C8.44248 2.51254 8.13084 3.53165 8.94889 3.72954Z" fill="#EDEDED"/>
<path d="M13.3029 13.6038C13.9846 12.8023 13.4198 11.8228 13.1179 11.5754C13.7412 11.803 14.3255 12.9705 13.5756 13.7918C12.9231 14.4942 12.2024 14.237 11.9492 13.9699C12.1829 14.049 12.4362 14.0688 12.6796 13.9995C12.9231 13.9303 13.1374 13.7918 13.3029 13.6038Z" fill="#D16527"/>
<path d="M31.9882 32.5511C33.2445 31.057 32.2025 29.2563 31.6474 28.8011C32.8063 29.2266 33.8873 31.4033 32.4946 32.8974C31.287 34.2034 29.9528 33.7285 29.4854 33.2239C29.4951 33.2239 30.9462 33.7879 31.9882 32.5511Z" fill="#EDEDED"/>
<path d="M25.234 27.4652C24.6302 26.2581 23.7635 25.1994 22.702 24.3683L22.6338 24.4474C23.5005 25.3775 24.231 26.4164 24.8153 27.5443C25.1367 28.1776 25.536 29.3451 25.6528 31.1953C25.9645 29.9091 25.6528 28.2666 25.234 27.4652Z" fill="#EDEDED"/>
<path d="M17.9446 11.299L18.4803 10.4679L14.9841 6.91582C14.4192 6.34195 15.7729 7.84588 15.3152 8.63742L17.9446 11.299Z" fill="#EDEDED"/>
<path d="M12.8137 2.08693L12.2586 1.51306C12.2586 1.51306 11.2263 2.56185 11.8301 3.1753L12.2781 3.63043C12.5605 3.11593 12.8235 2.63111 12.8137 2.08693Z" fill="#EDEDED"/>
<path d="M13.8309 3.10605L13.3245 2.59155C13.2563 2.90817 13.1492 3.205 13.0031 3.49193C12.9155 3.67003 12.8278 3.81844 12.7304 3.98664C12.7304 4.01633 12.7207 4.03612 12.7109 4.0658L13.266 4.62977C13.529 4.15485 13.714 3.64034 13.8309 3.10605Z" fill="#EDEDED"/>
<path d="M13.6953 5.07482L18.6913 10.1506C18.6913 10.1506 19.4996 8.87422 18.4673 7.82543L14.3186 3.61047C14.1823 4.12498 13.968 4.61969 13.6953 5.07482Z" fill="#EDEDED"/>
<path d="M12.0971 4.03597C11.912 3.85788 11.727 3.68967 11.5419 3.51158C11.1816 3.17517 10.8894 3.69957 11.1134 3.93703C11.3374 4.1646 11.5322 4.35259 11.7659 4.59005C11.8439 4.46143 12.0581 4.10523 12.0971 4.03597Z" fill="#EDEDED"/>
<path d="M13.0484 4.99596C12.8829 4.82776 12.7173 4.65956 12.5128 4.46167C12.4154 4.64966 12.3083 4.83765 12.1914 5.02564L12.7076 5.53025C12.8342 5.36205 13.0484 4.99596 13.0484 4.99596Z" fill="#EDEDED"/>
<path d="M13.1562 5.97521L14.5879 7.39999C15.0553 7.86502 14.1301 6.08405 13.6627 5.60913L13.4874 5.43103C13.3802 5.61902 13.2731 5.79712 13.1562 5.97521Z" fill="#EDEDED"/>
<path d="M11.6305 4.84725C11.426 4.63947 11.241 4.44159 11.0657 4.25359C10.7346 3.8974 10.6079 4.11508 10.8904 4.4119C11.0949 4.61968 11.2897 4.81757 11.4942 5.02535C11.5429 4.96598 11.5916 4.91651 11.6305 4.84725Z" fill="#EDEDED"/>
<path d="M12.949 6.27224C12.9197 6.31182 12.8905 6.36129 12.8516 6.40087C13.4067 6.96484 13.9715 7.52882 14.5266 8.09279C15.1012 8.66666 14.7604 7.99385 14.1955 7.41998C14.1955 7.41998 13.6599 6.89558 12.9879 6.23267C12.9684 6.24256 12.9587 6.25245 12.949 6.27224Z" fill="#EDEDED"/>
<path d="M12.5432 5.77694C12.3679 5.60874 12.2121 5.45043 12.0466 5.28223C12.0076 5.34159 11.9686 5.40096 11.9297 5.46032L12.4166 5.95504C12.4653 5.89567 12.5043 5.83631 12.5432 5.77694Z" fill="#EDEDED"/>
<path d="M11.2236 5.41191L10.4347 4.61047L10.1328 4.86772L10.9801 5.73842C11.0677 5.63948 11.1554 5.52075 11.2236 5.41191Z" fill="#EDEDED"/>
<path d="M12.1404 6.35131L11.595 5.80713C11.5171 5.91597 11.4392 6.0248 11.3516 6.12375L11.8969 6.67782C11.9846 6.56899 12.0625 6.46015 12.1404 6.35131Z" fill="#EDEDED"/>
<path d="M12.3125 7.0831C13.7831 8.57713 15.1173 9.92275 15.1173 9.92275C16.0522 10.8825 18.0973 12.4161 17.1527 11.4564L12.5657 6.76648C12.4781 6.87532 12.3904 6.97426 12.3125 7.0831Z" fill="#EDEDED"/>
<path d="M2.57865 13.0406L1.78981 12.2391L1.35156 12.6151C1.54634 12.813 1.72164 12.9911 1.92615 13.2088C2.15988 13.189 2.37414 13.1296 2.57865 13.0406Z" fill="#EDEDED"/>
<path d="M3.52632 14.0097L2.97121 13.4457C2.79591 13.5446 2.62061 13.6436 2.44531 13.7326L2.90304 14.1877C3.11729 14.168 3.33154 14.1086 3.52632 14.0097Z" fill="#EDEDED"/>
<path d="M3.37891 14.6731L8.48204 19.8577L9.05662 19.6202C7.56659 18.0965 5.57987 16.0978 3.86585 14.3466C3.71003 14.4554 3.54447 14.5741 3.37891 14.6731Z" fill="#EDEDED"/>
<path d="M4.29297 14.3164L6.74714 16.7899C7.38017 17.4331 6.95166 16.5921 6.3089 15.9489L4.57539 14.1877C4.48774 14.2273 4.39036 14.2768 4.29297 14.3164Z" fill="#EDEDED"/>
<path d="M4.119 13.7221L3.6418 13.2373L3.44703 13.3362L3.35938 13.3758L3.82684 13.8507C3.93396 13.8211 4.03135 13.7716 4.119 13.7221Z" fill="#EDEDED"/>
<path d="M3.18284 12.7727C2.90041 12.4858 2.6472 12.2385 2.39399 11.9713L2.19922 12.1989L2.89067 12.9014C2.9978 12.8618 3.09519 12.8222 3.18284 12.7727Z" fill="#EDEDED"/>
<path d="M3.67882 12.5256L2.85103 11.6846L2.65625 11.7835L3.48405 12.6146C3.54248 12.5948 3.62039 12.5652 3.67882 12.5256Z" fill="#EDEDED"/>
<path d="M4.62505 13.4848L4.10889 12.9604C4.05046 13 3.99203 13.0396 3.93359 13.0792L4.44001 13.5838C4.47897 13.5838 4.56661 13.5244 4.62505 13.4848Z" fill="#EDEDED"/>
<path d="M4.87891 14.0396L6.57346 15.7513C7.17726 16.3648 6.5832 15.4743 5.97939 14.8609L5.04447 13.911C4.99577 13.9605 4.93734 14.0001 4.87891 14.0396Z" fill="#EDEDED"/>
</svg>
