<svg width="160" height="26" viewBox="0 0 160 26" fill="none" xmlns="http://www.w3.org/2000/svg">
<path d="M46.537 24.7281L46.048 23.3127H43.0253L42.5364 24.7281H41.2695L43.8477 17.6734H45.2479L47.7816 24.7281H46.537ZM43.4032 22.2291H45.6479L44.5144 19.0445L43.4032 22.2291ZM52.7156 21.0791C53.0268 21.2339 53.2713 21.455 53.4491 21.7425C53.6269 22.03 53.7158 22.3397 53.7158 22.7156C53.7158 23.2906 53.5157 23.7771 53.0934 24.1531C52.6712 24.529 52.1822 24.7281 51.5821 24.7281H48.5372V17.6734H51.3599C51.9377 17.6734 52.4267 17.8724 52.8267 18.2263C53.2268 18.6022 53.4268 19.0666 53.4268 19.6195C53.4268 20.2608 53.2046 20.7253 52.7156 21.0791ZM51.3599 18.7791H49.7152V20.6368H51.3599C51.6266 20.6368 51.8266 20.5483 52.0044 20.3714C52.1822 20.1945 52.2711 19.9733 52.2711 19.708C52.2711 19.4426 52.1822 19.2214 52.0044 19.0445C51.8266 18.8676 51.6266 18.7791 51.3599 18.7791ZM51.5821 23.6444C51.8488 23.6444 52.0711 23.556 52.2489 23.3569C52.4489 23.1579 52.5378 22.9367 52.5378 22.6493C52.5378 22.3839 52.4489 22.1406 52.2489 21.9637C52.0711 21.7647 51.8488 21.6762 51.5821 21.6762H49.7152V23.6444H51.5821ZM59.1388 17.6955V18.8013H57.1385V24.7281H55.9827V18.7791H53.9825V17.6734H59.1388V17.6955ZM65.4952 23.8214C64.784 24.529 63.9172 24.8829 62.8949 24.8829C61.8725 24.8829 61.0057 24.529 60.2945 23.8214C59.5833 23.1137 59.2277 22.2512 59.2277 21.2339C59.2277 20.2166 59.5833 19.3541 60.2945 18.6464C61.0057 17.9388 61.8725 17.5849 62.8949 17.5849C63.9172 17.5849 64.784 17.9388 65.4952 18.6464C66.2064 19.3541 66.562 20.2166 66.562 21.2339C66.5843 22.2291 66.2064 23.0916 65.4952 23.8214ZM61.1168 23.0252C61.6058 23.5117 62.2059 23.7329 62.9171 23.7329C63.6283 23.7329 64.2284 23.4896 64.6951 23.0252C65.1841 22.5387 65.4285 21.9416 65.4285 21.2118C65.4285 20.482 65.1841 19.8849 64.6951 19.4205C64.2062 18.9339 63.6283 18.6907 62.9171 18.6907C62.2059 18.6907 61.6058 18.9339 61.1168 19.4205C60.6279 19.907 60.4056 20.5041 60.4056 21.2118C60.4056 21.9195 60.6279 22.5387 61.1168 23.0252ZM70.9849 24.8608C69.9181 24.8608 69.0291 24.5069 68.3401 23.8214C67.6289 23.1137 67.2955 22.2512 67.2955 21.2118C67.2955 20.1724 67.6511 19.3099 68.3401 18.6243C69.0513 17.9167 69.9181 17.5628 70.9849 17.5628C71.6294 17.5628 72.2073 17.7176 72.7629 18.0051C73.3186 18.3147 73.7409 18.7128 74.0298 19.2436L73.0074 19.8185C72.8074 19.4647 72.5407 19.1993 72.1851 19.0003C71.8295 18.8012 71.4294 18.6907 70.9849 18.6907C70.2292 18.6907 69.6069 18.9339 69.1402 19.3984C68.6735 19.8849 68.4512 20.482 68.4512 21.2118C68.4512 21.9416 68.6735 22.5387 69.1402 23.0252C69.6069 23.5117 70.2292 23.7329 70.9849 23.7329C71.4294 23.7329 71.8295 23.6223 72.2073 23.4233C72.5629 23.2242 72.8518 22.9368 73.0296 22.5829L74.052 23.1579C73.7631 23.6666 73.3408 24.0867 72.7852 24.3963C72.2295 24.7281 71.6294 24.8608 70.9849 24.8608ZM76.1634 23.6223H79.2972V24.7281H75.0077V17.6734H79.2528V18.7791H76.1634V20.6147H78.986V21.7204H76.1634V23.6223ZM82.9644 17.6955C83.6312 17.6955 84.1868 17.9167 84.6313 18.359C85.0758 18.8013 85.3203 19.3541 85.3203 20.0176C85.3203 20.6589 85.098 21.2118 84.6313 21.6762C84.1868 22.1185 83.6312 22.3397 82.9644 22.3397H81.5197V24.7281H80.364V17.6734H82.9644V17.6955ZM82.9644 21.2339C83.2978 21.2339 83.5867 21.1233 83.809 20.9022C84.0312 20.6589 84.1423 20.3714 84.1423 20.0176C84.1423 19.6637 84.0312 19.3762 83.809 19.133C83.5867 18.8897 83.2978 18.7791 82.9644 18.7791H81.5197V21.2339H82.9644ZM90.4988 21.0791C90.81 21.2339 91.0544 21.455 91.2322 21.7425C91.41 22.03 91.499 22.3397 91.499 22.7156C91.499 23.2906 91.2989 23.7771 90.8766 24.1531C90.4544 24.529 89.9654 24.7281 89.3653 24.7281H86.3204V17.6734H89.1431C89.7209 17.6734 90.2099 17.8724 90.6099 18.2263C91.01 18.6022 91.21 19.0666 91.21 19.6195C91.21 20.2608 90.9655 20.7253 90.4988 21.0791ZM89.1431 18.7791H87.4984V20.6368H89.1431C89.4098 20.6368 89.6098 20.5483 89.7876 20.3714C89.9654 20.1945 90.0543 19.9733 90.0543 19.708C90.0543 19.4426 89.9654 19.2214 89.7876 19.0445C89.6098 18.8676 89.3875 18.7791 89.1431 18.7791ZM89.3653 23.6444C89.632 23.6444 89.8543 23.556 90.0321 23.3569C90.2321 23.1579 90.321 22.9367 90.321 22.6493C90.321 22.3839 90.2321 22.1406 90.0321 21.9637C89.8543 21.7647 89.632 21.6762 89.3653 21.6762H87.4984V23.6444H89.3653ZM96.7441 24.7281V19.9512L93.4103 24.7281H92.4991V17.6734H93.6548V22.4502L96.9886 17.6734H97.8999V24.7281H96.7441ZM102.678 24.8608C101.612 24.8608 100.722 24.5069 100.034 23.8214C99.3223 23.1137 98.9889 22.2512 98.9889 21.2118C98.9889 20.1724 99.3445 19.3099 100.034 18.6243C100.745 17.9167 101.612 17.5628 102.678 17.5628C103.323 17.5628 103.901 17.7176 104.456 18.0051C105.012 18.3147 105.434 18.7128 105.723 19.2436L104.701 19.8185C104.501 19.4647 104.234 19.1993 103.879 19.0003C103.523 18.8012 103.123 18.6907 102.678 18.6907C101.923 18.6907 101.3 18.9339 100.834 19.3984C100.367 19.8849 100.145 20.482 100.145 21.2118C100.145 21.9416 100.367 22.5387 100.834 23.0252C101.3 23.5117 101.923 23.7329 102.678 23.7329C103.123 23.7329 103.523 23.6223 103.901 23.4233C104.256 23.2242 104.545 22.9368 104.723 22.5829L105.745 23.1579C105.456 23.6666 105.034 24.0867 104.479 24.3963C103.923 24.7281 103.323 24.8608 102.678 24.8608Z" fill="#EDEDED"/>
<path d="M44.5195 2.29975C45.3473 2.29975 46.0372 2.57432 46.5891 3.12346C47.1563 3.67261 47.4322 4.35903 47.4322 5.18274C47.4322 5.9912 47.1563 6.67763 46.5891 7.24202C46.0372 7.79117 45.3473 8.06574 44.5195 8.06574H42.7259V11.0708H41.2695V2.29975H44.5195ZM44.5195 6.70814C44.9488 6.70814 45.3013 6.57085 45.5773 6.28103C45.8532 5.9912 45.9912 5.62511 45.9912 5.18274C45.9912 4.74038 45.8532 4.37428 45.5773 4.09971C45.3013 3.80989 44.9488 3.65735 44.5195 3.65735H42.7259V6.70814H44.5195ZM54.3614 10.3996C53.7329 10.9487 52.9357 11.2233 51.9546 11.2233C50.9735 11.2233 50.1763 10.9487 49.5478 10.3996C48.9192 9.8352 48.6126 9.08775 48.6126 8.15726V2.29975H50.0537V8.08099C50.0537 8.61488 50.207 9.04199 50.5136 9.36232C50.8355 9.68265 51.3107 9.83519 51.9393 9.83519C52.5678 9.83519 53.043 9.68265 53.3496 9.36232C53.6716 9.04199 53.8249 8.61488 53.8249 8.08099V2.29975H55.2659V8.15726C55.2812 9.103 54.9746 9.85045 54.3614 10.3996ZM62.6857 2.29975V3.67261H60.2022V11.0555H58.7612V3.67261H56.2624V2.29975H62.6857ZM63.7434 2.29975H65.1845V11.0708H63.7434V2.29975ZM68.4038 9.68265H71.991V11.0555H66.9628V2.2845H68.4038V9.68265ZM79.7174 11.0708H78.0004L74.5205 6.90644V11.0708H73.0795V2.29975H74.5205V6.23526L77.8625 2.29975H79.5794L76.0228 6.57085L79.7174 11.0708ZM87.2598 9.91146C86.386 10.7809 85.2976 11.2233 84.0252 11.2233C82.7528 11.2233 81.6643 10.7809 80.7752 9.91146C79.9014 9.02673 79.4568 7.9437 79.4568 6.67763C79.4568 5.41155 79.9014 4.32853 80.7752 3.45905C81.6643 2.57432 82.7528 2.13196 84.0252 2.13196C85.2976 2.13196 86.386 2.57432 87.2598 3.45905C88.1489 4.32853 88.5935 5.41155 88.5935 6.67763C88.5935 7.95896 88.1489 9.02673 87.2598 9.91146ZM81.8023 8.93521C82.4002 9.53012 83.1513 9.81994 84.0252 9.81994C84.899 9.81994 85.6501 9.53012 86.248 8.93521C86.8459 8.34031 87.1525 7.57761 87.1525 6.67763C87.1525 5.77765 86.8459 5.03021 86.248 4.4353C85.6501 3.8404 84.9143 3.53532 84.0252 3.53532C83.1513 3.53532 82.4002 3.8404 81.8023 4.4353C81.2044 5.03021 80.9131 5.77765 80.9131 6.67763C80.9131 7.57761 81.2044 8.34031 81.8023 8.93521ZM91.7822 11.0708L88.7162 2.29975H90.2952L92.6407 9.33182L95.0015 2.29975H96.5805L93.5145 11.0708H91.7822ZM104.506 9.91146C103.632 10.7809 102.544 11.2233 101.272 11.2233C99.9991 11.2233 98.9107 10.7809 98.0215 9.91146C97.1477 9.02673 96.7031 7.9437 96.7031 6.67763C96.7031 5.41155 97.1477 4.32853 98.0215 3.45905C98.9107 2.57432 99.9991 2.13196 101.272 2.13196C102.544 2.13196 103.632 2.57432 104.506 3.45905C105.395 4.32853 105.84 5.41155 105.84 6.67763C105.84 7.95896 105.395 9.02673 104.506 9.91146ZM99.0333 8.93521C99.6312 9.53012 100.382 9.81994 101.256 9.81994C102.13 9.81994 102.881 9.53012 103.479 8.93521C104.077 8.34031 104.384 7.57761 104.384 6.67763C104.384 5.77765 104.077 5.03021 103.479 4.4353C102.881 3.8404 102.145 3.53532 101.256 3.53532C100.382 3.53532 99.6312 3.8404 99.0333 4.4353C98.4354 5.03021 98.1442 5.77765 98.1442 6.67763C98.1442 7.57761 98.4354 8.34031 99.0333 8.93521Z" fill="#EDEDED"/>
<path d="M118.732 2.29975V11.0708H117.291V4.81665L114.609 9.22504H114.44L111.757 4.8014V11.0708H110.301V2.29975H111.864L114.517 6.67763L117.184 2.29975H118.732ZM127.854 9.91146C126.98 10.7809 125.891 11.2233 124.619 11.2233C123.347 11.2233 122.258 10.7809 121.369 9.91146C120.495 9.02673 120.051 7.9437 120.051 6.67763C120.051 5.41155 120.495 4.32853 121.369 3.45905C122.258 2.57432 123.347 2.13196 124.619 2.13196C125.891 2.13196 126.98 2.57432 127.854 3.45905C128.743 4.32853 129.187 5.41155 129.187 6.67763C129.187 7.95896 128.743 9.02673 127.854 9.91146ZM122.396 8.93521C122.994 9.53012 123.745 9.81994 124.619 9.81994C125.493 9.81994 126.244 9.53012 126.842 8.93521C127.44 8.34031 127.746 7.57761 127.746 6.67763C127.746 5.77765 127.44 5.03021 126.842 4.4353C126.244 3.8404 125.508 3.53532 124.619 3.53532C123.73 3.53532 122.994 3.8404 122.396 4.4353C121.798 5.03021 121.507 5.77765 121.507 6.67763C121.507 7.57761 121.798 8.34031 122.396 8.93521ZM135.733 2.29975V3.67261H133.25V11.0555H131.809V3.67261H129.31V2.29975H135.733ZM143.659 9.91146C142.785 10.7809 141.697 11.2233 140.424 11.2233C139.152 11.2233 138.064 10.7809 137.174 9.91146C136.301 9.02673 135.856 7.9437 135.856 6.67763C135.856 5.41155 136.301 4.32853 137.174 3.45905C138.064 2.57432 139.152 2.13196 140.424 2.13196C141.697 2.13196 142.785 2.57432 143.659 3.45905C144.548 4.32853 144.993 5.41155 144.993 6.67763C145.008 7.95896 144.564 9.02673 143.659 9.91146ZM138.202 8.93521C138.799 9.53012 139.551 9.81994 140.424 9.81994C141.298 9.81994 142.049 9.53012 142.647 8.93521C143.245 8.34031 143.552 7.57761 143.552 6.67763C143.552 5.77765 143.245 5.03021 142.647 4.4353C142.049 3.8404 141.314 3.53532 140.424 3.53532C139.551 3.53532 138.799 3.8404 138.202 4.4353C137.604 5.03021 137.312 5.77765 137.312 6.67763C137.312 7.57761 137.604 8.34031 138.202 8.93521ZM151.339 11.0708L149.469 7.88269H147.752V11.0708H146.326V2.29975H149.852C150.634 2.29975 151.309 2.57432 151.861 3.12346C152.413 3.67261 152.688 4.32853 152.688 5.12173C152.688 5.68613 152.52 6.18951 152.198 6.66238C151.876 7.12 151.462 7.45558 150.941 7.66913L152.949 11.0708H151.339ZM147.768 3.65735V6.58611H149.852C150.236 6.58611 150.573 6.44882 150.834 6.159C151.094 5.86917 151.232 5.53359 151.232 5.12173C151.232 4.70987 151.094 4.35903 150.834 4.08446C150.558 3.79463 150.236 3.65735 149.852 3.65735H147.768ZM156.858 11.2233C156.015 11.2233 155.295 11.025 154.697 10.6437C154.114 10.2623 153.7 9.72842 153.47 9.0725L154.712 8.34031C155.065 9.33182 155.8 9.81994 156.904 9.81994C157.456 9.81994 157.855 9.71316 158.131 9.49961C158.407 9.28605 158.545 8.99623 158.545 8.66064C158.545 8.29454 158.391 8.03523 158.1 7.85218C157.809 7.65388 157.288 7.45558 156.536 7.22677C156.122 7.10474 155.77 6.98271 155.509 6.87593C155.249 6.76915 154.973 6.61661 154.681 6.41831C154.39 6.22001 154.175 5.97595 154.038 5.68612C153.9 5.3963 153.823 5.04546 153.823 4.66411C153.823 3.88616 154.099 3.276 154.651 2.81838C155.203 2.36077 155.877 2.13196 156.659 2.13196C157.364 2.13196 157.977 2.29975 158.514 2.65059C159.035 2.98618 159.449 3.45905 159.74 4.06921L158.514 4.77089C158.146 3.94717 157.533 3.55057 156.659 3.55057C156.245 3.55057 155.908 3.65735 155.647 3.85565C155.402 4.05395 155.264 4.31327 155.264 4.64886C155.264 4.96919 155.387 5.22851 155.647 5.42681C155.908 5.60986 156.368 5.80816 157.042 6.02171C157.379 6.12849 157.625 6.22001 157.778 6.26577C157.931 6.31154 158.161 6.40306 158.437 6.50984C158.729 6.63187 158.943 6.73865 159.081 6.86068C159.219 6.98271 159.372 7.11999 159.541 7.30304C159.71 7.47083 159.832 7.68439 159.894 7.89794C159.955 8.1115 160.001 8.37081 160.001 8.66064C160.001 9.45384 159.71 10.0793 159.127 10.5521C158.529 10.9945 157.778 11.2233 156.858 11.2233Z" fill="#D16527"/>
<path d="M24.2828 5.34253C22.294 3.36364 20.5704 0.87682 21.2863 0.164417C22.0023 -0.547987 24.5015 1.16706 26.4903 3.14596C28.4791 5.12486 30.2027 7.61167 29.4867 8.32407C28.7708 9.03648 26.2715 7.32143 24.2828 5.34253ZM26.2782 3.36364C23.8717 0.975765 21.883 0.0258939 21.5184 0.388692C21.1537 0.75149 22.115 2.73039 24.5148 5.12486C26.9146 7.51273 28.9034 8.46919 29.2746 8.1064C29.6392 7.737 28.6713 5.7581 26.2782 3.36364Z" fill="#EDEDED"/>
<path d="M21.2931 0.164246L19.9805 1.47032L20.2059 1.69459L21.5185 0.388521L21.2931 0.164246Z" fill="#EDEDED"/>
<path d="M29.2735 8.10016L27.9609 9.40623L28.1863 9.63051L29.4989 8.32443L29.2735 8.10016Z" fill="#EDEDED"/>
<path d="M7.12458 22.4209C6.79312 22.0911 6.56109 21.6623 6.46828 21.2006C6.37547 20.7388 6.42188 20.2573 6.60749 19.8285C6.78648 19.3932 7.09806 19.0238 7.48919 18.7599C7.88031 18.4961 8.34436 18.3575 8.81504 18.3575C9.28572 18.3575 9.74977 18.4961 10.1409 18.7599C10.532 19.0238 10.8436 19.3932 11.0226 19.8285C11.2016 20.2639 11.248 20.7388 11.1618 21.2006C11.0756 21.6623 10.8436 22.0845 10.5055 22.4209C10.0547 22.8694 9.44482 23.1201 8.81504 23.1201C8.18526 23.1201 7.57537 22.8694 7.12458 22.4209ZM10.2867 19.281C9.99505 18.9908 9.62381 18.7929 9.22605 18.7137C8.82167 18.6346 8.40402 18.6742 8.02616 18.8325C7.64829 18.9908 7.32346 19.2546 7.09143 19.5911C6.86604 19.9341 6.74008 20.3298 6.74008 20.7388C6.74008 21.1478 6.85941 21.5436 7.09143 21.8866C7.31683 22.2296 7.64166 22.4934 8.02616 22.6452C8.40402 22.8035 8.82167 22.843 9.22605 22.7639C9.63044 22.6847 10.0017 22.4868 10.2867 22.1966C10.6779 21.8074 10.8966 21.2863 10.8966 20.7388C10.89 20.1913 10.6712 19.6702 10.2867 19.281Z" fill="#D16527"/>
<path d="M23.6109 6.02156C21.6221 4.04266 19.8985 1.55585 20.6145 0.843445L20.8399 1.06772C20.4752 1.43052 21.4365 3.40942 23.8363 5.80388C26.2361 8.19835 28.2248 9.14822 28.5961 8.78542L28.8215 9.0097C28.1387 9.66933 25.7521 8.15877 23.6109 6.02156Z" fill="#EDEDED"/>
<path d="M27.9576 9.40634C27.5864 9.76913 25.6043 8.81266 23.1978 6.42479C20.798 4.03692 19.8368 2.05803 20.2014 1.68863L19.976 1.46436L15.3621 6.0554C15.0637 6.35224 15.1565 6.9459 15.6405 7.82322C15.6405 7.82322 15.7134 7.99472 15.8128 7.97493C15.8924 7.96174 15.9322 7.79683 15.9322 7.79683C15.9653 7.69129 16.0913 7.45382 16.2239 7.44063C16.3432 7.42744 16.4957 7.56596 16.6614 7.81662C17.3575 8.84565 18.1596 9.80871 19.0479 10.6794C19.8965 11.5369 20.8246 12.3087 21.8256 12.9881C22.2233 13.252 22.2499 13.4037 22.2366 13.4631C22.2167 13.5884 22.0046 13.6939 21.8985 13.7269C21.8985 13.7269 21.7527 13.7665 21.7261 13.8193C21.6864 13.905 21.8786 13.9908 21.8786 13.9908C22.7073 14.4261 23.2774 14.5053 23.5624 14.2217L28.1764 9.63061L27.9576 9.40634ZM22.3228 13.8589C22.4421 13.7797 22.5217 13.6544 22.5482 13.5093C22.5879 13.252 22.4023 12.9947 21.9979 12.7309C21.0168 12.0647 20.102 11.3061 19.2733 10.4617C18.3983 9.60423 17.616 8.66755 16.9332 7.65171C16.6879 7.26912 16.4426 7.09762 16.1907 7.1306C16.1045 7.14379 16.0316 7.17678 15.9587 7.22955C15.8924 7.27572 15.8327 7.34168 15.7863 7.40765C15.5145 6.84696 15.435 6.43139 15.5941 6.27968L19.8302 2.06462C19.9495 3.12663 21.3814 5.04616 22.9791 6.64247C24.5834 8.23878 26.5125 9.65699 27.5798 9.77573L23.3437 13.9908C23.1978 14.1425 22.8266 14.0897 22.3228 13.8589Z" fill="#EDEDED"/>
<path d="M19.6439 9.96558C19.3522 9.67534 19.1533 9.29935 19.0671 8.89698C18.9876 8.4946 19.0273 8.07244 19.1864 7.68985C19.3455 7.30726 19.6107 6.98404 19.9554 6.75317C20.3002 6.5223 20.7045 6.40356 21.1222 6.40356C21.5398 6.40356 21.9442 6.52889 22.2889 6.75317C22.6337 6.98404 22.8988 7.30726 23.0579 7.68985C23.217 8.07244 23.2568 8.488 23.1773 8.89698C23.0977 9.29935 22.8988 9.67534 22.6005 9.96558C22.2094 10.3548 21.6724 10.5724 21.1222 10.5724C20.572 10.5724 20.035 10.3548 19.6439 9.96558ZM22.3817 7.2347C22.1298 6.98404 21.8183 6.81913 21.4735 6.75317C21.1288 6.68721 20.7708 6.72019 20.446 6.85211C20.1212 6.98404 19.8427 7.21491 19.6505 7.50515C19.4582 7.79539 19.3522 8.1384 19.3522 8.488C19.3522 8.83761 19.4582 9.18062 19.6505 9.47086C19.8427 9.7611 20.1212 9.99197 20.446 10.1239C20.7708 10.2558 21.1288 10.2954 21.4735 10.2228C21.8183 10.1569 22.1365 9.98537 22.3817 9.74131C22.7132 9.41149 22.8988 8.95634 22.8988 8.488C22.9055 8.01966 22.7132 7.57111 22.3817 7.2347Z" fill="#EDEDED"/>
<path d="M6.67645 22.9027C6.25217 22.4805 5.96049 21.9396 5.84116 21.3459C5.72183 20.7589 5.7815 20.1454 6.01352 19.5913C6.24555 19.0372 6.63667 18.5623 7.1405 18.2259C7.64432 17.8895 8.23432 17.7114 8.83759 17.7114C9.44085 17.7114 10.0309 17.8895 10.5347 18.2259C11.0385 18.5623 11.4296 19.0372 11.6617 19.5913C11.8937 20.1454 11.9533 20.7589 11.834 21.3459C11.7147 21.933 11.423 22.4739 10.9987 22.9027C10.4286 23.47 9.64636 23.7932 8.83759 23.7932C8.02882 23.7932 7.25319 23.47 6.67645 22.9027ZM10.7733 18.8261C10.3888 18.4436 9.9049 18.1863 9.37456 18.0808C8.84422 17.9752 8.29399 18.028 7.79679 18.2391C7.2996 18.4436 6.8687 18.7932 6.57038 19.2417C6.27206 19.6903 6.10633 20.218 6.10633 20.7523C6.10633 21.2932 6.26543 21.8143 6.57038 22.2628C6.8687 22.7114 7.2996 23.061 7.79679 23.2655C8.29399 23.47 8.84422 23.5227 9.37456 23.4238C9.9049 23.3182 10.3955 23.061 10.7733 22.6784C11.2838 22.1639 11.5688 21.4779 11.5688 20.7523C11.5755 20.0333 11.2838 19.3407 10.7733 18.8261Z" fill="#EDEDED"/>
<path d="M20.0781 9.53847C19.8726 9.33399 19.7268 9.07013 19.6738 8.7799C19.6141 8.49625 19.6472 8.19282 19.7599 7.92897C19.8726 7.65852 20.0649 7.42765 20.3102 7.26934C20.5554 7.10443 20.8405 7.01868 21.1322 7.01868C21.4239 7.01868 21.7156 7.10443 21.9542 7.26934C22.1995 7.43424 22.3918 7.66512 22.5044 7.92897C22.6171 8.19942 22.6437 8.49625 22.5906 8.7799C22.531 9.06354 22.3918 9.32739 22.1862 9.53847C22.047 9.677 21.8813 9.78913 21.7023 9.86169C21.5233 9.93425 21.3244 9.97383 21.1322 9.97383C20.9333 9.97383 20.7411 9.93425 20.5621 9.86169C20.3765 9.78254 20.2174 9.6704 20.0781 9.53847ZM21.9476 7.67171C21.7819 7.50681 21.5764 7.40126 21.351 7.35509C21.1256 7.30892 20.8869 7.3353 20.6748 7.42105C20.4626 7.5068 20.277 7.65852 20.1511 7.84981C20.0251 8.04111 19.9522 8.26538 19.9522 8.49625C19.9522 8.72713 20.0185 8.9514 20.1511 9.14269C20.2836 9.33399 20.4626 9.4857 20.6748 9.57146C20.8869 9.65721 21.1256 9.68359 21.351 9.63742C21.5764 9.59124 21.7885 9.47911 21.9476 9.32079C22.0603 9.21525 22.1465 9.08333 22.2061 8.9448C22.2658 8.80628 22.2989 8.64797 22.2989 8.49625C22.2989 8.34454 22.2724 8.19282 22.2128 8.0477C22.1531 7.90258 22.0669 7.77725 21.9476 7.67171Z" fill="#EDEDED"/>
<path d="M19.9218 11.3178C18.7086 12.5118 17.4955 13.7057 16.2956 14.9062C15.5332 15.6714 14.7708 16.4432 14.1344 17.3139C13.1864 18.6002 12.6097 20.1042 12.3313 21.6675C12.2915 21.8984 12.6428 21.9841 12.6826 21.7598C12.9411 20.2229 13.5444 18.7651 14.446 17.492C15.089 16.5949 15.8978 15.8165 16.6801 15.0316C17.8402 13.864 19.0069 12.7163 20.1803 11.5685C20.2134 11.5355 20.2333 11.4894 20.2333 11.4432C20.2333 11.397 20.2134 11.3508 20.1803 11.3178C20.1472 11.2849 20.1008 11.2651 20.0543 11.2651C20.0013 11.2717 19.9549 11.2849 19.9218 11.3178Z" fill="#EDEDED"/>
<path d="M18.081 9.49791C16.9275 10.6655 15.7674 11.8264 14.6006 12.9808C13.8515 13.7196 13.1024 14.4781 12.2539 15.1048C10.9678 16.0679 9.46297 16.6417 7.87857 16.9122C7.64655 16.9518 7.74599 17.2948 7.97138 17.2618C9.48948 17.0177 10.928 16.4438 12.2009 15.5863C13.1289 14.9531 13.9245 14.1549 14.72 13.3766C15.9331 12.1826 17.133 10.9755 18.3263 9.76836C18.492 9.59026 18.2401 9.33301 18.081 9.49791Z" fill="#EDEDED"/>
<path d="M6.09214 23.488C5.62809 23.0197 5.29663 22.4392 5.11764 21.806C4.93865 21.1727 4.92539 20.5065 5.07786 19.8666L5.38281 19.9392C5.24359 20.5263 5.25685 21.1397 5.42258 21.7268C5.58832 22.3073 5.89326 22.8416 6.31753 23.2703C7.15945 24.1081 8.44553 24.4643 9.67194 24.2004L9.73823 24.5039C8.40575 24.7875 7.00698 24.3983 6.09214 23.488Z" fill="#EDEDED"/>
<path d="M8.05759 17.2097C8.32939 16.9458 8.68074 16.6754 8.7404 16.2862C8.79343 15.9696 8.48849 15.6463 8.18354 15.6134C7.79242 15.5672 7.51399 15.864 7.2687 16.1279C6.70522 16.7215 6.12184 17.2954 5.53847 17.8693C5.12745 18.2783 4.70318 18.6807 4.29216 19.0896C4.0734 19.3073 3.6889 19.591 3.66238 19.9274C3.64913 20.0989 3.69553 20.2704 3.78834 20.4089C3.88778 20.554 4.02699 20.653 4.19273 20.7057C4.617 20.8508 5.07442 20.31 5.32633 20.0593C5.35285 20.0263 5.37273 19.9801 5.37273 19.934C5.37273 19.8878 5.35285 19.8482 5.3197 19.8152C5.28655 19.7822 5.24678 19.7625 5.20037 19.7625C5.15397 19.7625 5.10756 19.7756 5.07442 19.802C4.86891 20.0065 4.4579 20.5276 4.13969 20.277C3.82149 20.0329 4.13969 19.7559 4.31868 19.5712C4.74958 19.116 5.21363 18.6873 5.66442 18.2453C6.30746 17.6121 6.9505 16.9788 7.57365 16.3258C7.66646 16.2268 7.75927 16.1345 7.86534 16.0553C8.04433 15.9234 8.41557 15.9762 8.36916 16.2796C8.32939 16.5434 7.97141 16.7875 7.79242 16.959C7.77253 16.9788 7.75927 16.992 7.75264 17.0184C7.74601 17.0382 7.73938 17.0646 7.73938 17.0843C7.73938 17.1107 7.74601 17.1305 7.75264 17.1503C7.75927 17.1701 7.77253 17.1899 7.79242 17.2097C7.80567 17.2295 7.82556 17.2427 7.85208 17.2493C7.87197 17.2559 7.89848 17.2624 7.91837 17.2624C7.94489 17.2624 7.96478 17.2559 7.98466 17.2493C8.01781 17.2361 8.0377 17.2295 8.05759 17.2097Z" fill="#EDEDED"/>
<path d="M12.6793 21.7933C12.8517 21.5954 13.044 21.4173 13.2627 21.2656C13.508 21.1205 13.7864 21.4239 13.7467 21.6614C13.7069 21.7933 13.6273 21.9055 13.5213 21.9912C12.9047 22.6377 12.2286 23.2379 11.5988 23.8778C11.1148 24.3659 10.6442 24.8672 10.147 25.3422C9.92158 25.5598 9.7227 25.7511 9.41775 25.5071C9.02663 25.1839 9.57686 24.7287 9.80888 24.4978C9.97461 24.3329 9.71607 24.0757 9.55697 24.2406C9.30506 24.4978 8.84101 24.8936 8.91393 25.296C8.94708 25.4741 9.03989 25.639 9.17247 25.7643C9.30506 25.8897 9.47742 25.9688 9.65641 25.9952C10.0078 26.0414 10.253 25.7445 10.4784 25.5269C10.9093 25.1179 11.3137 24.6825 11.7314 24.2604C12.3081 23.6799 12.8849 23.0928 13.4749 22.5387C13.7665 22.2617 14.1245 21.9912 14.1113 21.5493C14.098 21.1865 13.74 20.9028 13.4086 20.8699C13.0108 20.8303 12.6595 21.2986 12.4208 21.5427C12.2617 21.7076 12.5202 21.9648 12.6793 21.7933Z" fill="#EDEDED"/>
<path d="M19.2975 10.9029C17.9716 12.2683 16.5596 13.5414 15.2337 14.9135C14.5973 15.5467 13.9941 16.2129 13.4306 16.9121C12.9268 17.5388 12.6351 18.304 12.582 19.1021C12.7146 18.647 13.1455 17.8884 13.5168 17.3871C14.1532 16.5757 14.836 15.8106 15.5652 15.0784C16.8645 13.7393 18.2567 12.4926 19.5428 11.1536C19.7085 10.9886 19.4566 10.7314 19.2975 10.9029Z" fill="#EDEDED"/>
<path d="M23.653 2.50613C23.0895 2.64466 22.2741 1.82011 22.2741 1.82011C22.1946 1.86629 23.1691 3.00086 23.7856 2.79637C24.4419 2.58529 24.0706 1.68159 23.9977 1.69478C23.9977 1.70138 24.2165 2.37421 23.653 2.50613Z" fill="#EDEDED"/>
<path d="M27.225 6.06181C27.0924 6.6225 27.9277 7.44704 27.9277 7.44704C27.8813 7.5262 26.7344 6.54994 26.9333 5.92988C27.1454 5.27685 28.0536 5.65284 28.0404 5.7188C28.0404 5.7254 27.3576 5.50772 27.225 6.06181Z" fill="#D16527"/>
<path d="M20.6066 9.01027C21.1436 9.47202 21.7999 9.08943 21.9656 8.88494C21.8131 9.30711 21.0309 9.70289 20.4873 9.19497C20.0166 8.75302 20.189 8.26489 20.368 8.09338C20.3149 8.2517 20.3017 8.4232 20.3481 8.58811C20.3878 8.75302 20.4807 8.89814 20.6066 9.01027Z" fill="#D16527"/>
<path d="M7.90647 21.6746C8.90749 22.5256 10.114 21.8197 10.419 21.4438C10.1339 22.2287 8.67546 22.9609 7.67444 22.0176C6.79938 21.1997 7.11759 20.296 7.45568 19.9794C7.46231 19.9794 7.07781 20.9622 7.90647 21.6746Z" fill="#EDEDED"/>
<path d="M11.2692 16.8072C12.1443 16.3388 12.9464 15.7452 13.6491 15.046C13.2448 15.5935 12.6481 16.3982 11.3223 17.0974C10.7853 17.3745 9.68484 17.5921 8.81641 17.3811C10.0627 17.3019 10.845 17.0249 11.2692 16.8072Z" fill="#EDEDED"/>
<path d="M22.1523 12.1558L22.7092 12.5252L25.0891 10.1571C25.4736 9.77452 24.466 10.6914 23.9356 10.3814L22.1523 12.1558Z" fill="#EDEDED"/>
<path d="M28.326 8.68001L28.7038 8.30402C28.7038 8.30402 28.0011 7.60481 27.5901 8.01378L27.2852 8.31721C27.6365 8.50191 27.9613 8.6866 28.326 8.68001Z" fill="#EDEDED"/>
<path d="M27.6381 9.36698L27.9828 9.02397C27.7707 8.97779 27.5718 8.90523 27.3796 8.80629C27.2669 8.74692 27.1608 8.68755 27.0481 8.62159C27.0282 8.62159 27.0149 8.61499 26.9951 8.6084L26.6172 8.98439C26.942 9.16249 27.2801 9.28782 27.6381 9.36698Z" fill="#EDEDED"/>
<path d="M26.3254 9.28082L22.918 12.6647C22.918 12.6647 23.7731 13.2122 24.4758 12.513L27.2999 9.70299C26.9552 9.60404 26.6304 9.45892 26.3254 9.28082Z" fill="#EDEDED"/>
<path d="M27.0236 8.1927C27.1429 8.06737 27.2556 7.94204 27.3749 7.81671C27.6003 7.57265 27.249 7.37476 27.0899 7.52647C26.9374 7.67819 26.8114 7.81012 26.6523 7.96843C26.7385 8.0146 26.9772 8.16632 27.0236 8.1927Z" fill="#EDEDED"/>
<path d="M26.3736 8.84488C26.4863 8.73274 26.599 8.62061 26.7316 8.48208C26.6056 8.40952 26.4797 8.34356 26.3537 8.2644L26.0156 8.61401C26.1217 8.69317 26.3736 8.84488 26.3736 8.84488Z" fill="#EDEDED"/>
<path d="M25.7209 8.91156L24.7663 9.88122C24.4547 10.1978 25.648 9.57119 25.9662 9.25457L26.0855 9.13583C25.9595 9.06328 25.8402 8.99072 25.7209 8.91156Z" fill="#EDEDED"/>
<path d="M26.4709 7.87535C26.6101 7.73683 26.7427 7.6115 26.8686 7.49277C27.1139 7.26849 26.9615 7.18274 26.7626 7.37403L26.3516 7.783C26.398 7.81599 26.4311 7.84897 26.4709 7.87535Z" fill="#EDEDED"/>
<path d="M25.5225 8.77226C25.496 8.75247 25.4629 8.73268 25.4364 8.7063L24.3028 9.84087C23.9183 10.2235 24.3691 9.99918 24.7536 9.61C24.7536 9.61 25.1049 9.2472 25.5491 8.79205C25.5424 8.78545 25.5292 8.77886 25.5225 8.77226Z" fill="#EDEDED"/>
<path d="M25.8498 8.49632C25.9625 8.37758 26.0686 8.27204 26.1813 8.15991L26.0619 8.08075L25.7305 8.40397C25.7636 8.44355 25.81 8.46993 25.8498 8.49632Z" fill="#EDEDED"/>
<path d="M26.0938 7.6039L26.6307 7.0696L26.4584 6.86511C26.2661 7.04981 26.0805 7.23451 25.875 7.43899C25.9413 7.49836 26.0208 7.55113 26.0938 7.6039Z" fill="#EDEDED"/>
<path d="M25.4688 8.2254L25.84 7.85601C25.7671 7.80324 25.6942 7.75047 25.6279 7.6911L25.25 8.06709C25.3229 8.11986 25.3958 8.17923 25.4688 8.2254Z" fill="#EDEDED"/>
<path d="M24.9698 8.33704C23.9688 9.33308 23.0672 10.2368 23.0672 10.2368C22.4242 10.87 21.3967 12.2553 22.0397 11.6154L25.182 8.50854C25.1157 8.44917 25.0427 8.38981 24.9698 8.33704Z" fill="#EDEDED"/>
<path d="M20.9904 1.74861L21.5274 1.21431L21.2688 0.924072C21.1363 1.056 21.0169 1.17473 20.8711 1.31326C20.8844 1.46497 20.9241 1.61009 20.9904 1.74861Z" fill="#EDEDED"/>
<path d="M20.333 2.3868L20.7109 2.01081C20.6446 1.89207 20.5783 1.77334 20.5186 1.64801L20.207 1.95804C20.2269 2.10975 20.2667 2.25487 20.333 2.3868Z" fill="#EDEDED"/>
<path d="M19.8917 2.28741L16.418 5.74389L16.5771 6.13307C17.598 5.12384 18.9371 3.77818 20.1105 2.61723C20.0375 2.51169 19.9646 2.39955 19.8917 2.28741Z" fill="#EDEDED"/>
<path d="M20.1359 2.90833L18.4786 4.564C18.0477 4.99276 18.6112 4.70253 19.0421 4.27377L20.2221 3.09962C20.1889 3.04025 20.1624 2.97429 20.1359 2.90833Z" fill="#EDEDED"/>
<path d="M20.5276 2.78929L20.8524 2.46607L20.7861 2.33415L20.7596 2.27478L20.4414 2.5914C20.4613 2.66396 20.4878 2.72993 20.5276 2.78929Z" fill="#EDEDED"/>
<path d="M21.1709 2.15585L21.7013 1.62155L21.5488 1.48962L21.0781 1.95796C21.1046 2.03052 21.1378 2.09649 21.1709 2.15585Z" fill="#EDEDED"/>
<path d="M21.3241 2.49321C21.523 2.29532 21.702 2.11722 21.8876 1.93252L21.8213 1.8006L21.2578 2.36129C21.2843 2.40086 21.2976 2.45363 21.3241 2.49321Z" fill="#EDEDED"/>
<path d="M20.6835 3.13954L21.0348 2.78994C21.0083 2.75036 20.9818 2.71078 20.9553 2.6712L20.6172 3.01421C20.6238 3.034 20.657 3.09996 20.6835 3.13954Z" fill="#EDEDED"/>
<path d="M20.3203 3.30481L19.1735 4.45257C18.7625 4.86154 19.3591 4.45917 19.7701 4.05019L20.4065 3.41695C20.3667 3.38397 20.3402 3.34439 20.3203 3.30481Z" fill="#EDEDED"/>
<path d="M5.36921 5.4018C3.38043 7.3807 0.881198 9.09574 0.165238 8.38334C-0.550722 7.67094 1.17289 5.18412 3.16166 3.20522C5.15044 1.22632 7.64967 -0.488721 8.36563 0.223682C9.08159 0.936085 7.35799 3.4295 5.36921 5.4018ZM3.38043 3.4229C0.980637 5.81077 0.0193941 7.78967 0.384003 8.15906C0.748613 8.52846 2.73739 7.56539 5.14381 5.17752C7.54361 2.78965 8.50485 0.810755 8.14024 0.441361C7.77563 0.0719664 5.78685 1.03503 3.38043 3.4229Z" fill="#EDEDED"/>
<path d="M0.385552 8.15948L0.160156 8.38376L1.47275 9.68983L1.69814 9.46556L0.385552 8.15948Z" fill="#EDEDED"/>
<path d="M8.36602 0.224487L8.14062 0.448762L9.45322 1.75484L9.67861 1.53056L8.36602 0.224487Z" fill="#EDEDED"/>
<path d="M22.5289 22.4855C22.1975 22.8154 21.7666 23.0462 21.3025 23.1386C20.8385 23.2309 20.3545 23.1848 19.9236 23.0001C19.4861 22.822 19.1149 22.5119 18.8497 22.1227C18.5845 21.7336 18.4453 21.2718 18.4453 20.8035C18.4453 20.3351 18.5845 19.8734 18.8497 19.4842C19.1149 19.095 19.4861 18.785 19.9236 18.6069C20.3612 18.4288 20.8385 18.3826 21.3025 18.4684C21.7666 18.5607 22.1908 18.785 22.5289 19.1214C22.9797 19.57 23.2316 20.1768 23.2316 20.8035C23.2316 21.4301 22.9797 22.037 22.5289 22.4855ZM19.3734 19.3391C19.0817 19.6293 18.8828 19.9987 18.8033 20.3945C18.7237 20.7969 18.7635 21.2125 18.9226 21.5884C19.0817 21.9644 19.3469 22.2877 19.685 22.5185C20.0297 22.7428 20.4275 22.8681 20.8385 22.8681C21.2495 22.8681 21.6472 22.7494 21.992 22.5185C22.3301 22.2942 22.6019 21.971 22.7543 21.5884C22.9134 21.2125 22.9532 20.7969 22.8737 20.3945C22.7941 19.9921 22.5952 19.6227 22.3035 19.3391C21.9124 18.9499 21.3887 18.7322 20.8385 18.7322C20.2882 18.7322 19.7579 18.9499 19.3734 19.3391Z" fill="#D16527"/>
<path d="M6.05163 6.08162C4.06285 8.06052 1.56362 9.77557 0.847656 9.06316L1.07305 8.83889C1.44429 9.20169 3.42644 8.24522 5.83286 5.85735C8.23265 3.46948 9.1939 1.49058 8.82929 1.12119L9.05468 0.896912C9.71761 1.57633 8.19288 3.94441 6.05163 6.08162Z" fill="#EDEDED"/>
<path d="M9.45429 1.75417C9.8189 2.12357 8.85765 4.10247 6.45786 6.49034C4.05807 8.87821 2.06929 9.83467 1.69805 9.47188L1.47266 9.69615L6.08662 14.2872C6.38494 14.584 6.98157 14.4917 7.86326 14.0101C7.86326 14.0101 8.03562 13.9376 8.01574 13.8386C8.00248 13.7595 7.83675 13.7199 7.83675 13.7199C7.73068 13.6869 7.49203 13.5616 7.47877 13.4297C7.46551 13.3109 7.60472 13.1592 7.85664 12.9943C8.8908 12.3017 9.85204 11.5101 10.7271 10.6262C11.5889 9.78191 12.3645 8.85842 13.0473 7.86237C13.3125 7.46659 13.465 7.44021 13.5247 7.4534C13.6506 7.47319 13.7567 7.68427 13.7898 7.78981C13.7898 7.78981 13.8296 7.93493 13.8826 7.96132C13.9688 8.0009 14.055 7.8096 14.055 7.8096C14.4925 6.98506 14.5721 6.41778 14.287 6.13413L9.67305 1.54309L9.45429 1.75417ZM13.929 7.36105C13.8893 7.30168 13.8362 7.24891 13.7766 7.21593C13.7169 7.17635 13.6506 7.14997 13.5777 7.13678C13.3191 7.0972 13.0606 7.2753 12.7954 7.68427C12.1259 8.66053 11.3635 9.57082 10.515 10.3954C9.65316 11.2661 8.71181 12.0444 7.6909 12.7239C7.30641 12.9679 7.13404 13.212 7.16719 13.4627C7.18045 13.5484 7.2136 13.621 7.26663 13.6935C7.31303 13.7661 7.37933 13.8189 7.44562 13.865C6.88213 14.1355 6.46449 14.208 6.31202 14.0563L2.08255 9.84127C3.14986 9.72254 5.07897 8.29773 6.68326 6.70801C8.28754 5.1117 9.71283 3.19217 9.83215 2.13016L14.0683 6.34522C14.2141 6.48374 14.1544 6.85313 13.929 7.36105Z" fill="#EDEDED"/>
<path d="M10.0095 10.0251C9.7178 10.3153 9.33993 10.5132 8.93555 10.599C8.53116 10.6781 8.10689 10.6385 7.72239 10.4802C7.3379 10.3219 7.01306 10.0581 6.78104 9.71506C6.54901 9.37205 6.42969 8.96967 6.42969 8.5541C6.42969 8.13854 6.55564 7.73616 6.78104 7.39315C7.01306 7.05014 7.3379 6.78629 7.72239 6.62798C8.10689 6.46967 8.52453 6.43009 8.93555 6.50924C9.33993 6.5884 9.7178 6.78629 10.0095 7.08312C10.4006 7.47231 10.6194 8.00661 10.6194 8.5541C10.626 9.1016 10.4072 9.62931 10.0095 10.0251ZM7.2716 7.3008C7.01969 7.55146 6.85396 7.86149 6.78767 8.2045C6.72137 8.54751 6.75452 8.90371 6.88711 9.22693C7.01969 9.55015 7.25172 9.8272 7.5434 10.0185C7.83509 10.2098 8.17981 10.3153 8.53116 10.3153C8.88251 10.3153 9.22723 10.2098 9.51892 10.0185C9.81061 9.8206 10.0426 9.55015 10.1752 9.22693C10.3078 8.90371 10.3476 8.54751 10.2747 8.2045C10.2084 7.86149 10.036 7.54487 9.79072 7.3008C9.45926 6.97099 9.00184 6.78629 8.53116 6.78629C8.06048 6.78629 7.60969 6.96439 7.2716 7.3008Z" fill="#EDEDED"/>
<path d="M23.0141 22.9282C22.5898 23.3504 22.0462 23.6406 21.4496 23.7593C20.853 23.8781 20.2431 23.8187 19.6862 23.5878C19.1294 23.357 18.652 22.9678 18.314 22.4664C17.9759 21.9651 17.7969 21.3781 17.7969 20.7778C17.7969 20.1775 17.9759 19.5904 18.314 19.0891C18.652 18.5878 19.1227 18.1986 19.6862 17.9678C20.2431 17.7369 20.8596 17.6775 21.4496 17.7962C22.0396 17.915 22.5832 18.2052 23.0141 18.6274C23.5842 19.1947 23.9091 19.973 23.9091 20.7778C23.9091 21.5891 23.5842 22.3609 23.0141 22.9282ZM18.9172 18.8517C18.5327 19.2342 18.2742 19.7158 18.1681 20.2435C18.062 20.7712 18.1151 21.3187 18.3272 21.8134C18.5327 22.3081 18.8841 22.7369 19.3349 23.0337C19.7857 23.3306 20.316 23.4955 20.853 23.4955C21.3966 23.4955 21.9203 23.3372 22.3711 23.0337C22.8219 22.7303 23.1732 22.3081 23.3787 21.8134C23.5842 21.3187 23.6373 20.7712 23.5378 20.2435C23.4317 19.7158 23.1732 19.2276 22.7887 18.8517C22.2716 18.3437 21.5822 18.0601 20.853 18.0601C20.1304 18.0601 19.4343 18.3437 18.9172 18.8517Z" fill="#EDEDED"/>
<path d="M9.58316 9.59732C9.37765 9.80181 9.11248 9.94693 8.82079 9.9997C8.53573 10.0591 8.23079 10.0261 7.96562 9.91394C7.69382 9.80181 7.46179 9.61051 7.30269 9.36645C7.13696 9.12239 7.05078 8.83874 7.05078 8.54851C7.05078 8.25827 7.13696 7.96803 7.30269 7.73056C7.46842 7.4865 7.70045 7.2952 7.96562 7.18307C8.23742 7.07093 8.53573 7.04454 8.82079 7.09731C9.10585 7.15668 9.37102 7.2952 9.58316 7.49969C9.72237 7.63821 9.82844 7.80312 9.90799 7.98122C9.98091 8.15932 10.0207 8.35062 10.0207 8.54851C10.0207 8.7464 9.98091 8.93769 9.90799 9.11579C9.82844 9.29389 9.72237 9.4588 9.58316 9.59732ZM7.70045 7.72396C7.53472 7.88887 7.42202 8.09336 7.38224 8.31763C7.33584 8.54191 7.36236 8.77938 7.44854 8.99046C7.53472 9.20154 7.68719 9.38624 7.87944 9.51157C8.07169 9.6369 8.29708 9.70946 8.52911 9.70946C8.76113 9.70946 8.98653 9.6435 9.17877 9.51157C9.37102 9.38624 9.5235 9.20154 9.60968 8.99046C9.69586 8.77938 9.72237 8.54191 9.67597 8.31763C9.62956 8.09336 9.51687 7.88228 9.35776 7.72396C9.25169 7.61842 9.11911 7.53267 8.9799 7.4733C8.84068 7.41394 8.68821 7.38755 8.52911 7.38755C8.37663 7.38755 8.22416 7.42053 8.07832 7.4733C7.9391 7.53267 7.81315 7.61842 7.70045 7.72396Z" fill="#EDEDED"/>
<path d="M14.7102 13.0942L14.7367 13.0546C14.7898 12.9622 14.8561 12.8765 14.9356 12.8105C13.8285 11.7155 12.7281 10.6205 11.6409 9.51237C11.6077 9.47938 11.5613 9.45959 11.5149 9.45959C11.4685 9.45959 11.4221 9.47938 11.389 9.51237C11.3558 9.54535 11.3359 9.59152 11.3359 9.6377C11.3359 9.68387 11.3558 9.73004 11.389 9.76303C12.4828 10.8712 13.5965 11.986 14.7102 13.0942Z" fill="#EDEDED"/>
<path d="M21.8769 16.9578C20.3323 16.7006 18.8672 16.1003 17.5878 15.2032C17.3359 15.0251 17.0972 14.8338 16.8586 14.6359C16.7724 14.7151 16.6928 14.8008 16.6133 14.88C16.8718 15.0977 17.1304 15.3153 17.4088 15.5132C18.7015 16.4565 20.213 17.0304 21.7841 17.3074C22.0095 17.347 22.1089 16.9974 21.8769 16.9578Z" fill="#EDEDED"/>
<path d="M13.1292 14.6177C12.0288 13.5161 10.9217 12.4211 9.80796 11.3327C9.64223 11.1678 9.38369 11.4251 9.54942 11.5834C10.6565 12.6718 11.757 13.7602 12.8508 14.842C12.937 14.7694 13.0298 14.6969 13.1292 14.6177Z" fill="#EDEDED"/>
<path d="M17.3422 21.643C17.0969 20.1324 16.5201 18.701 15.6583 17.4345C15.4793 17.1773 15.2871 16.9266 15.0882 16.6891L15.0285 16.7617C14.9689 16.8277 14.896 16.887 14.8164 16.9266C14.9424 17.0783 15.0617 17.23 15.181 17.3818C16.1489 18.668 16.7256 20.1588 16.9974 21.7353C17.0306 21.9662 17.3819 21.8673 17.3422 21.643Z" fill="#EDEDED"/>
<path d="M23.6082 23.516C23.1375 23.9777 22.5542 24.3075 21.9178 24.4856C21.2813 24.6637 20.6118 24.6769 19.9688 24.5252L20.0417 24.2218C20.6317 24.3603 21.2482 24.3471 21.8382 24.1822C22.4216 24.0173 22.9585 23.7139 23.3894 23.2917C24.2314 22.454 24.5893 21.1743 24.3242 19.954L24.6291 19.888C24.9208 21.2139 24.5231 22.6057 23.6082 23.516Z" fill="#EDEDED"/>
<path d="M17.2927 21.5626C17.0275 21.2922 16.7557 20.9426 16.3646 20.8832C16.0464 20.8304 15.7215 21.1339 15.6884 21.4373C15.642 21.8265 15.9403 22.1035 16.2055 22.3476C16.8021 22.9083 17.3789 23.4888 17.9556 24.0692C18.3666 24.4782 18.771 24.9004 19.182 25.3094C19.3942 25.527 19.6858 25.9096 20.0173 25.936C20.1897 25.9492 20.362 25.903 20.5012 25.8107C20.6471 25.7117 20.7465 25.5732 20.7996 25.4083C20.9454 24.9861 20.4018 24.531 20.1499 24.2803C20.1167 24.2539 20.0703 24.2341 20.0239 24.2341C19.9775 24.2341 19.9378 24.2539 19.9046 24.2869C19.8715 24.3199 19.8516 24.3595 19.8516 24.4057C19.8516 24.4518 19.8648 24.498 19.8914 24.531C20.0969 24.7355 20.6206 25.1444 20.3687 25.4611C20.1234 25.7777 19.8449 25.4611 19.6593 25.283C19.2019 24.8542 18.771 24.3925 18.3268 23.9439C17.6904 23.3041 17.054 22.6642 16.3977 22.0442C16.2983 21.9518 16.2055 21.8595 16.1259 21.7473C15.9933 21.5692 16.0464 21.1998 16.3513 21.246C16.6165 21.2856 16.8618 21.6418 17.0341 21.8199C17.0673 21.8529 17.1137 21.8727 17.1601 21.8727C17.2065 21.8727 17.2529 21.8529 17.2861 21.8199C17.3192 21.7869 17.3391 21.7407 17.3391 21.6946C17.3457 21.6484 17.3258 21.6022 17.2927 21.5626Z" fill="#EDEDED"/>
<path d="M21.9058 16.9658C21.707 16.7942 21.528 16.603 21.3755 16.3853C21.2297 16.1412 21.5346 15.8642 21.7733 15.9037C21.9058 15.9433 22.0185 16.0225 22.1047 16.128C22.7544 16.7415 23.3577 17.4143 23.9941 18.041C24.4846 18.5225 24.9885 18.9908 25.4658 19.4855C25.6845 19.7098 25.8768 19.9077 25.6315 20.2111C25.3067 20.6003 24.8492 20.0528 24.6172 19.822C24.4515 19.6571 24.1929 19.9143 24.3587 20.0726C24.6172 20.3233 25.015 20.785 25.4194 20.7125C25.5983 20.6795 25.7641 20.5871 25.89 20.4552C26.016 20.3233 26.0955 20.1518 26.1221 19.9737C26.1685 19.6241 25.8701 19.38 25.6514 19.1557C25.2404 18.727 24.8028 18.3246 24.3786 17.909C23.7952 17.3351 23.2052 16.7613 22.6483 16.1742C22.3699 15.884 22.0981 15.5278 21.6539 15.5409C21.2893 15.5541 21.0043 15.9103 20.9711 16.2402C20.9313 16.6359 21.402 16.9855 21.6473 17.223C21.8197 17.3747 22.0782 17.1241 21.9058 16.9658Z" fill="#EDEDED"/>
<path d="M14.4824 13.4156C13.3886 12.3206 12.3279 11.186 11.2142 10.1174C11.0485 9.9591 10.7899 10.2098 10.9557 10.3681C12.076 11.4433 13.1433 12.5778 14.2438 13.6794C14.3233 13.5937 14.4029 13.5079 14.4824 13.4156Z" fill="#EDEDED"/>
<path d="M17.4726 16.1216C17.0815 15.8248 16.7036 15.5082 16.339 15.1849C16.2595 15.2773 16.1733 15.3696 16.0938 15.462C16.3655 15.706 16.644 15.9435 16.9887 16.214C17.6185 16.7087 18.3875 17.0055 19.1896 17.0583C18.7455 16.9264 17.9765 16.4976 17.4726 16.1216Z" fill="#EDEDED"/>
<path d="M2.51867 6.04069C2.65788 6.60138 1.82923 7.41273 1.82923 7.41273C1.87563 7.49189 3.01586 6.52223 2.81036 5.90877C2.59822 5.25573 1.69001 5.62512 1.70327 5.69768C1.7099 5.69768 2.38608 5.4866 2.51867 6.04069Z" fill="#D16527"/>
<path d="M6.095 2.48672C6.65849 2.61865 7.48714 1.78751 7.48714 1.78751C7.5667 1.83369 6.58556 2.97485 5.96241 2.77696C5.30612 2.56588 5.68398 1.66218 5.75028 1.67537C5.75028 1.67537 5.53814 2.3548 6.095 2.48672Z" fill="#EDEDED"/>
<path d="M9.05428 9.06862C9.51833 8.53431 9.13383 7.88128 8.92832 7.71637C9.3526 7.86809 9.75035 8.64645 9.2399 9.19395C8.79574 9.66229 8.30517 9.49078 8.13281 9.31268C8.29191 9.36545 8.46428 9.37864 8.63001 9.33247C8.79574 9.2863 8.94158 9.19395 9.05428 9.06862Z" fill="#D16527"/>
<path d="M21.7779 21.701C22.6331 20.705 21.9238 19.5044 21.5459 19.201C22.3348 19.4846 23.0706 20.9358 22.1227 21.9319C21.3006 22.8026 20.3924 22.486 20.0742 22.1495C20.0808 22.1495 21.0686 22.5255 21.7779 21.701Z" fill="#EDEDED"/>
<path d="M17.1763 18.3097C16.7652 17.505 16.1752 16.7991 15.4527 16.2451L15.4062 16.2978C15.9963 16.9179 16.4934 17.6105 16.8912 18.3625C17.11 18.7846 17.3818 19.563 17.4613 20.7965C17.6735 19.939 17.4613 18.844 17.1763 18.3097Z" fill="#EDEDED"/>
<path d="M12.2163 7.53243L12.5809 6.97834L10.201 4.61026C9.81648 4.22767 10.7379 5.23032 10.4264 5.75802L12.2163 7.53243Z" fill="#EDEDED"/>
<path d="M8.72432 1.39217L8.34645 1.00958C8.34645 1.00958 7.64375 1.70879 8.05476 2.11777L8.35971 2.4212C8.55196 2.07819 8.73095 1.75497 8.72432 1.39217Z" fill="#EDEDED"/>
<path d="M9.41471 2.07171L9.06999 1.7287C9.02358 1.93978 8.95066 2.13767 8.85122 2.32896C8.79156 2.4477 8.73189 2.54664 8.6656 2.65878C8.6656 2.67857 8.65897 2.69176 8.65234 2.71155L9.03021 3.08754C9.2092 2.77092 9.33516 2.42791 9.41471 2.07171Z" fill="#EDEDED"/>
<path d="M9.32031 3.38342L12.7211 6.76734C12.7211 6.76734 13.2714 5.91641 12.5686 5.2172L9.74459 2.40717C9.65178 2.75017 9.50593 3.07999 9.32031 3.38342Z" fill="#EDEDED"/>
<path d="M8.23456 2.69151C8.10861 2.57278 7.98265 2.46064 7.8567 2.34191C7.61141 2.11763 7.41253 2.46724 7.56501 2.62555C7.71748 2.77726 7.85007 2.90259 8.00917 3.06091C8.0622 2.97515 8.20805 2.73769 8.23456 2.69151Z" fill="#EDEDED"/>
<path d="M8.88025 3.33063C8.76755 3.21849 8.65486 3.10635 8.51564 2.97443C8.44935 3.09976 8.37643 3.22509 8.29688 3.35042L8.64823 3.68683C8.73441 3.57469 8.88025 3.33063 8.88025 3.33063Z" fill="#EDEDED"/>
<path d="M8.95703 3.98438L9.93153 4.93425C10.2497 5.24428 9.61996 4.05694 9.30175 3.74032L9.18243 3.62158C9.10951 3.74691 9.03658 3.86565 8.95703 3.98438Z" fill="#EDEDED"/>
<path d="M7.9147 3.23074C7.77549 3.09222 7.64953 2.96029 7.5302 2.83496C7.30481 2.59749 7.21863 2.74261 7.41088 2.9405C7.55009 3.07902 7.68268 3.21095 7.82189 3.34947C7.85504 3.3099 7.88818 3.27691 7.9147 3.23074Z" fill="#EDEDED"/>
<path d="M8.81629 4.18117C8.7964 4.20756 8.77652 4.24054 8.75 4.26692C9.12787 4.64291 9.51236 5.0189 9.89023 5.3949C10.2814 5.77748 10.0493 5.32893 9.66484 4.94634C9.66484 4.94634 9.30023 4.59674 8.84281 4.15479C8.82955 4.16138 8.82292 4.16798 8.81629 4.18117Z" fill="#EDEDED"/>
<path d="M8.53874 3.85106C8.41941 3.73892 8.31334 3.63338 8.20064 3.52124C8.17413 3.56082 8.14761 3.6004 8.12109 3.63997L8.45256 3.96979C8.4857 3.93021 8.51222 3.89063 8.53874 3.85106Z" fill="#EDEDED"/>
<path d="M7.63701 3.60687L7.10004 3.07257L6.89453 3.24408L7.47128 3.82455C7.53094 3.75859 7.5906 3.67943 7.63701 3.60687Z" fill="#EDEDED"/>
<path d="M8.26353 4.23407L7.89229 3.87128C7.83926 3.94384 7.78623 4.0164 7.72656 4.08236L8.0978 4.45175C8.15746 4.37919 8.2105 4.30663 8.26353 4.23407Z" fill="#EDEDED"/>
<path d="M8.37891 4.72274C9.37992 5.71879 10.2881 6.61589 10.2881 6.61589C10.9245 7.25573 12.3167 8.27816 11.6736 7.63832L8.55127 4.51166C8.4916 4.58422 8.43194 4.65018 8.37891 4.72274Z" fill="#EDEDED"/>
<path d="M1.75716 8.69379L1.22019 8.15948L0.921875 8.41015C1.05446 8.54207 1.17379 8.66081 1.313 8.80593C1.4721 8.79273 1.61795 8.75315 1.75716 8.69379Z" fill="#EDEDED"/>
<path d="M2.39991 9.34004L2.02204 8.96405C1.90272 9.03001 1.78339 9.09598 1.66406 9.15534L1.97564 9.45877C2.12148 9.44558 2.26732 9.406 2.39991 9.34004Z" fill="#EDEDED"/>
<path d="M2.30078 9.78225L5.77451 13.2387L6.16564 13.0804C5.15136 12.0646 3.79899 10.7321 2.63224 9.56458C2.52618 9.63713 2.41348 9.71629 2.30078 9.78225Z" fill="#EDEDED"/>
<path d="M2.92188 9.54535L4.59245 11.1944C5.02335 11.6232 4.73166 11.0625 4.29413 10.6337L3.11412 9.45959C3.05446 9.48598 2.98817 9.51896 2.92188 9.54535Z" fill="#EDEDED"/>
<path d="M2.80615 9.14927L2.48131 8.82605L2.34873 8.89201L2.28906 8.9184L2.60727 9.23502C2.68019 9.21523 2.74648 9.18225 2.80615 9.14927Z" fill="#EDEDED"/>
<path d="M2.16565 8.51495C1.9734 8.32366 1.80104 8.15875 1.62868 7.98065L1.49609 8.13237L1.96677 8.60071C2.03969 8.57432 2.10599 8.54794 2.16565 8.51495Z" fill="#EDEDED"/>
<path d="M2.50467 8.35091L1.94118 7.79022L1.80859 7.85619L2.37208 8.41028C2.41186 8.39708 2.46489 8.3773 2.50467 8.35091Z" fill="#EDEDED"/>
<path d="M3.14646 8.99005L2.79511 8.64044C2.75533 8.66683 2.71556 8.69321 2.67578 8.7196L3.0205 9.05601C3.04702 9.05601 3.10668 9.01643 3.14646 8.99005Z" fill="#EDEDED"/>
<path d="M3.32031 9.35974L4.4738 10.5009C4.88482 10.9099 4.48043 10.3162 4.06942 9.90723L3.43301 9.27399C3.39986 9.30697 3.36009 9.33335 3.32031 9.35974Z" fill="#EDEDED"/>
</svg>
