<svg width="118" height="115" viewBox="0 0 118 115" fill="none" xmlns="http://www.w3.org/2000/svg">
<mask id="mask0_297_1671" style="mask-type:alpha" maskUnits="userSpaceOnUse" x="92" y="14" width="13" height="14">
<path fill-rule="evenodd" clip-rule="evenodd" d="M95.0086 26.0273L95.2295 26.1582C96.1582 26.7088 97.2228 27.0002 98.3082 27.0006H98.3106C101.645 27.0006 104.358 24.2896 104.359 20.9576C104.36 19.3429 103.731 17.8246 102.589 16.6824C101.447 15.5401 99.9287 14.9107 98.3131 14.9102C94.9766 14.9102 92.263 17.6208 92.2617 20.9526C92.2613 22.0945 92.581 23.2065 93.1865 24.1686L93.3304 24.3973L92.7193 26.6272L95.0086 26.0273ZM101.977 22.6869C101.932 22.6111 101.81 22.5656 101.629 22.4747C101.447 22.3838 100.553 21.9443 100.386 21.8836C100.219 21.8231 100.098 21.7928 99.9769 21.9746C99.8557 22.1564 99.5072 22.5656 99.4011 22.6869C99.295 22.8081 99.1889 22.8233 99.0071 22.7324C98.8253 22.6415 98.2394 22.4496 97.5448 21.8307C97.0042 21.349 96.6393 20.7541 96.5332 20.5722C96.4272 20.3904 96.5219 20.292 96.6129 20.2015C96.6947 20.12 96.7948 19.9893 96.8857 19.8832C96.9766 19.7771 97.0069 19.7013 97.0676 19.5801C97.1282 19.4588 97.0978 19.3528 97.0524 19.2619C97.0069 19.1709 96.6433 18.2767 96.4917 17.9129C96.3441 17.5587 96.1942 17.6067 96.0826 17.6011C95.9766 17.5958 95.8553 17.5947 95.7341 17.5947C95.6129 17.5947 95.4159 17.6401 95.2492 17.822C95.0825 18.0039 94.6127 18.4434 94.6127 19.3375C94.6127 20.2318 95.2643 21.0956 95.3553 21.2168C95.4462 21.3381 96.6375 23.173 98.4616 23.9599C98.8954 24.1471 99.2342 24.2589 99.4982 24.3426C99.9339 24.4809 100.33 24.4614 100.644 24.4146C100.993 24.3624 101.719 23.9751 101.871 23.5508C102.022 23.1264 102.022 22.7627 101.977 22.6869Z" fill="#D16527"/>
</mask>
<g mask="url(#mask0_297_1671)">
<path d="M73061.8 -13755.7H-19805.7V58542.5H73061.8V-13755.7Z" fill="#E2E2E2"/>
</g>
<mask id="mask1_297_1671" style="mask-type:alpha" maskUnits="userSpaceOnUse" x="1" y="39" width="13" height="13">
<path fill-rule="evenodd" clip-rule="evenodd" d="M3.98519 50.7841L4.2061 50.9151C5.1348 51.4657 6.19935 51.757 7.28476 51.7574H7.28721C10.6212 51.7574 13.3346 49.0465 13.336 45.7144C13.3366 44.0997 12.708 42.5815 11.566 41.4392C10.4239 40.2969 8.90525 39.6675 7.28962 39.667C3.95312 39.667 1.23961 42.3776 1.23828 45.7095C1.23783 46.8513 1.55761 47.9634 2.1631 48.9255L2.30692 49.1541L1.69586 51.3841L3.98519 50.7841ZM10.9536 47.4437C10.9081 47.3679 10.7869 47.3225 10.6051 47.2315C10.4232 47.1406 9.52924 46.7011 9.36255 46.6404C9.19587 46.5799 9.07463 46.5496 8.95343 46.7314C8.83222 46.9132 8.48374 47.3225 8.37762 47.4437C8.27158 47.565 8.1655 47.5801 7.98369 47.4892C7.80185 47.3983 7.21593 47.2064 6.52137 46.5875C5.98078 46.1058 5.61584 45.5109 5.50976 45.329C5.40371 45.1472 5.49845 45.0488 5.58948 44.9583C5.67129 44.8769 5.77135 44.7461 5.86227 44.64C5.95319 44.534 5.98348 44.4581 6.04411 44.3369C6.10472 44.2157 6.0744 44.1096 6.02895 44.0187C5.98348 43.9277 5.61983 43.0335 5.46831 42.6698C5.32067 42.3156 5.17076 42.3635 5.05915 42.3579C4.95321 42.3527 4.83186 42.3515 4.71066 42.3515C4.58942 42.3515 4.39242 42.397 4.22574 42.5789C4.05906 42.7607 3.5893 43.2002 3.5893 44.0944C3.5893 44.9886 4.2409 45.8524 4.33182 45.9736C4.42274 46.0949 5.61405 47.9298 7.43817 48.7168C7.87201 48.904 8.21073 49.0157 8.47481 49.0994C8.91044 49.2377 9.30682 49.2182 9.62015 49.1714C9.96952 49.1193 10.696 48.7319 10.8475 48.3076C10.9991 47.8832 10.9991 47.5195 10.9536 47.4437Z" fill="#D16527"/>
</mask>
<g mask="url(#mask1_297_1671)">
<path d="M72970.8 -13730.9H-19896.7V58567.2H72970.8V-13730.9Z" fill="#E2E2E2"/>
</g>
<path d="M68.641 48.9925C68.641 48.9925 62.4046 61.4521 56.0706 70.053C53.55 73.4759 51.0137 76.2874 48.8494 77.4602C46.7307 78.6077 44.9369 80.39 43.4526 82.3656C39.6085 87.4805 37.835 93.8839 37.835 93.8839L21.6367 69.409C21.6367 69.409 22.1897 45.4851 24.1345 41.4826C26.9691 35.6509 28.3381 23.8678 29.4271 21.5214C30.2348 19.7813 32.5417 10.7921 32.7632 10.1312C32.8596 9.84632 33.6268 9.40983 34.624 9.41114C35.4238 9.41114 36.7824 10.1833 37.1244 11.7705C38.8569 19.7918 36.7714 25.0822 36.7955 25.3177C37.4064 31.4825 35.5697 36.0581 36.858 37.2699C36.9062 37.3148 36.9948 37.2934 37.1211 37.2134C39.3539 35.7816 53.2139 15.6013 54.9203 15.1654C56.7232 14.7055 68.641 48.9925 68.641 48.9925Z" fill="#FFB27D"/>
<path d="M42.7065 89.0382C42.7065 89.0382 42.4857 99.9145 41.8545 114.562H0.996094C10.3353 94.6715 18.4547 77.9297 18.4547 77.9297C18.4547 77.9297 41.7191 78.64 42.7065 89.0382Z" fill="#D16527"/>
<path d="M82.8074 6.82463L77.791 14.1687L72.869 21.3762C72.5687 21.7379 72.2216 21.8635 71.8458 21.8277C70.6649 21.7158 69.2034 20.0141 68.0642 19.0722L67.9489 18.9772C66.447 17.7361 66.2347 15.4938 67.4774 13.9951L75.0007 4.91217V4.91153L77.2322 2.21782C78.4749 0.717775 80.7193 0.505712 82.2206 1.74686L82.3359 1.84183C83.8378 3.08233 84.0495 5.32459 82.8074 6.82463Z" fill="#FFB27D"/>
<path d="M77.7851 14.1677L72.8631 21.3752C72.5628 21.7369 72.2157 21.8624 71.8398 21.8266L74.9948 4.91113C75.0013 5.00611 75.5374 12.5954 77.7851 14.1677Z" fill="#EFA26F"/>
<path d="M56.0788 70.0505C53.5582 73.4734 51.022 76.2849 48.8577 77.4577C46.7389 78.6052 44.9452 80.3875 43.4609 82.3631C41.7537 81.5682 39.8076 80.636 37.9058 79.7123C35.5897 78.5883 35.5005 75.3032 37.7696 74.0862C37.7918 74.0745 37.8133 74.0621 37.8348 74.0504C39.9607 72.8353 42.1393 68.5459 42.1393 68.5459L56.0788 70.0505Z" fill="#EFA26F"/>
<path d="M32.6522 10.5039L31.3398 15.7957C31.3398 15.7957 32.4875 16.2647 33.2241 15.9004C33.9607 15.5361 34.5619 10.7888 32.6522 10.5039Z" fill="#FFC197"/>
<path d="M70.3936 72.5526H42.1721C39.3961 72.5526 37.125 70.2843 37.125 67.5119V5.5573C37.125 2.78488 39.3961 0.516602 42.1721 0.516602H70.3936C73.1696 0.516602 75.4407 2.78488 75.4407 5.5573V67.5119C75.4407 70.2843 73.1696 72.5526 70.3936 72.5526Z" fill="#2B478B"/>
<path d="M73.5335 6.03528V66.5542C73.5335 68.6072 71.8635 70.2868 69.8236 70.2868H42.7249C40.685 70.2868 39.0156 68.6072 39.0156 66.5542V6.03528C39.0156 3.98231 40.685 2.30273 42.7249 2.30273H69.8236C71.8635 2.30273 73.5335 3.98231 73.5335 6.03528Z" fill="#C0D8FB"/>
<path d="M69.8236 2.30273L43.0603 70.2868H42.7249C40.685 70.2868 39.0156 68.6072 39.0156 66.5542V6.03528C39.0156 3.98231 40.685 2.30273 42.7249 2.30273H69.8236Z" fill="#CBE1FD"/>
<path d="M61.9482 4.55296H50.6225C49.7002 4.55296 48.9453 3.79903 48.9453 2.87793V2.61448C48.9453 1.69338 49.7002 0.939453 50.6225 0.939453H61.9482C62.8705 0.939453 63.6254 1.69338 63.6254 2.61448V2.87793C63.6254 3.79903 62.8705 4.55296 61.9482 4.55296Z" fill="#2B478B"/>
<path d="M80.3017 34.5581L79.5533 34.8417L74.5232 36.7509C74.4053 36.7958 74.2861 36.8336 74.1669 36.8635C72.5015 37.2961 70.7293 36.4088 70.1047 34.7676L70.0311 34.5744C69.3615 32.8154 70.2551 30.8288 72.0163 30.1601L76.7058 28.3804L77.0464 28.2509L77.7948 27.9673C79.5559 27.2986 81.5444 28.1911 82.2133 29.9507L82.2869 30.1439C82.9564 31.9034 82.0635 33.8894 80.3017 34.5581Z" fill="#FFB27D"/>
<path d="M76.2119 34.6743C75.3723 34.9918 73.8528 35.5558 73.0399 35.6722C72.81 35.7054 72.386 35.5805 71.9907 35.1479C71.7536 34.889 71.5263 34.5195 71.3582 34.0082C71.2794 33.7676 71.2137 33.5282 71.1863 33.281C71.155 32.9915 71.1635 32.7027 71.2137 32.4158C71.2599 32.1576 71.4364 31.9227 71.6937 31.7985C71.6943 31.7978 71.6963 31.7978 71.6976 31.7965C72.5619 31.3841 73.7264 30.8819 74.7484 30.6016C75.4544 30.4071 76.1689 30.718 76.3923 31.3353L76.4978 31.6235L77.0377 33.1001C77.2611 33.7149 76.8977 34.4161 76.2119 34.6743Z" fill="#FFD3B6"/>
<path d="M76.2129 34.675C75.3734 34.9924 73.8539 35.5564 73.041 35.6728C72.8111 35.706 72.3871 35.5811 71.9918 35.1485C71.9494 35.0503 71.911 34.9462 71.8739 34.8356C71.7951 34.5949 71.7293 34.3556 71.7019 34.1084C71.6707 33.8189 71.6791 33.5301 71.7293 33.2432C71.7755 32.985 71.952 32.7501 72.2093 32.6259C72.21 32.6252 72.2119 32.6252 72.2132 32.6239C73.0775 32.2115 74.2427 31.7093 75.264 31.429C75.7166 31.3041 76.1713 31.3867 76.4989 31.6248L77.0388 33.1014C77.2622 33.7155 76.8988 34.4167 76.2129 34.675Z" fill="#FFC197"/>
<path d="M78.0214 41.6242L74.1422 42.6787C72.9633 42.9994 71.7369 42.2981 71.4158 41.1207L71.2966 40.6823C70.9755 39.5049 71.6776 38.28 72.8565 37.9593L76.7357 36.9049C77.9146 36.5842 79.141 37.2854 79.4621 38.4628L79.582 38.9013C79.9018 40.078 79.1997 41.3035 78.0214 41.6242Z" fill="#FFB27D"/>
<path d="M75.9221 41.433C75.2095 41.623 73.9212 41.9586 73.2465 41.9951C73.0009 42.0087 72.5092 41.8012 72.1881 41.1566C72.1093 41.0005 72.0422 40.8196 71.9894 40.6102C71.9425 40.4202 71.9067 40.2316 71.9028 40.041C71.8983 39.8159 71.9269 39.5947 71.9894 39.3781C72.0454 39.1823 72.2083 39.0138 72.4278 38.9358C72.4297 38.9351 72.4304 38.9351 72.4317 38.9338C73.1709 38.673 74.1635 38.3614 75.0226 38.2118C75.616 38.1077 76.1787 38.3926 76.3174 38.8811L76.4177 39.2298L76.7167 40.2778C76.8548 40.7624 76.5044 41.2782 75.9221 41.433Z" fill="#FFD3B6"/>
<path d="M75.9259 41.4349C75.2134 41.6249 73.9251 41.9605 73.2503 41.997C73.0048 42.0106 72.513 41.8031 72.1919 41.1585C72.1489 40.9816 72.1177 40.804 72.1138 40.6238C72.1092 40.4 72.1379 40.1775 72.2004 39.9609C72.2564 39.7664 72.4192 39.5966 72.6387 39.5186C72.6407 39.5179 72.6413 39.5179 72.6426 39.5166C73.3819 39.2558 74.3751 38.9448 75.2336 38.7959C75.7247 38.7094 76.1956 38.8902 76.4216 39.2324L76.7205 40.2803C76.8586 40.7643 76.5082 41.2801 75.9259 41.4349Z" fill="#FFC197"/>
<path d="M14.4766 86.1835C14.4766 86.1835 22.4611 93.821 27.8429 96.7697L31.9182 93.8828V98.1416C31.9182 98.1416 39.9326 99.5571 42.4604 98.1416V86.5283L19.9496 75.2578L14.4766 86.1835Z" fill="#AF4A00"/>
<path d="M44.1675 97.2165C41.0665 97.8514 34.3834 95.4185 34.3834 95.4185L35.4613 85.0197L27.9093 93.6583C24.0659 92.2298 18.0548 88.5025 14.483 86.1828C12.7049 85.0275 11.5312 84.2216 11.5312 84.2216C16.5711 76.1216 21.641 68.5459 21.641 68.5459C23.1293 71.5187 26.6509 74.1005 30.4683 76.1652C36.8128 79.5972 43.974 81.602 43.974 81.602C43.9714 87.783 44.1675 97.2165 44.1675 97.2165Z" fill="#DCEAFF"/>
<path d="M80.1833 27.1321C80.1559 27.1419 80.1279 27.1516 80.0993 27.1608L75.0138 28.465C72.7778 29.0387 70.4656 27.8308 69.8749 25.7797L69.5727 24.7292C69.0054 22.7601 70.2246 20.7013 72.3023 20.0339L73.9814 19.6033L77.3878 18.7297C79.6238 18.1559 81.936 19.3639 82.5267 21.4149L82.8289 22.4655C83.3884 24.4072 82.2095 26.4361 80.1833 27.1321Z" fill="#FFB27D"/>
<path d="M77.8528 25.7119L75.3824 26.8242C75.3785 26.8249 75.3739 26.8262 75.3668 26.8281C75.2678 26.8548 75.1675 26.875 75.0678 26.8899C75.0261 26.8964 74.9838 26.901 74.9428 26.9055C74.9252 26.9075 74.9076 26.9075 74.8906 26.9062C74.6184 26.8971 74.4321 26.6089 74.5494 26.3513C74.7825 25.8433 74.8464 25.2559 74.6894 24.6782L74.6308 24.4636C74.6308 24.4616 74.6301 24.459 74.6288 24.4571L74.4373 23.7565C74.2856 23.1984 73.9632 22.7306 73.5418 22.393C73.491 22.3514 73.4389 22.313 73.3855 22.2766C72.897 21.939 73.0214 21.174 73.5932 21.0146C73.5984 21.0127 73.6036 21.012 73.6089 21.0101L76.3203 20.6003C76.9905 20.4188 77.636 20.9333 77.819 21.6033L78.0365 22.4015L78.5002 24.1032C78.682 24.7725 78.523 25.5304 77.8528 25.7119Z" fill="#FFD3B6"/>
<path d="M77.8501 25.7117L75.3797 26.8241C75.3758 26.8247 75.3712 26.826 75.3641 26.828C75.3061 26.839 75.125 26.8696 74.8879 26.906C74.6157 26.8969 74.4294 26.6088 74.5466 26.3512C74.7798 25.8431 74.8437 25.2557 74.6867 24.6781L74.6281 24.4634C74.6281 24.4615 74.6274 24.4589 74.6261 24.4569L74.4346 23.7563C74.2829 23.1982 73.9605 22.7305 73.5391 22.3929C73.6263 22.2654 73.7573 22.1639 73.9279 22.1164C73.9325 22.1145 73.9383 22.1138 73.9435 22.1119L76.655 21.7021C77.2197 21.5485 77.7655 21.8901 78.0338 22.4007L78.4975 24.1024C78.6793 24.7724 78.5203 25.5302 77.8501 25.7117Z" fill="#FFC197"/>
<path d="M37.1249 53.5548C37.1249 53.5548 36.0157 43.8825 34.9918 41.9968C33.9679 40.1103 33.1023 36.3329 34.6766 33.5266C36.2514 30.7191 36.7953 25.3193 36.7953 25.3193C37.4062 31.4841 35.5695 36.0597 36.8578 37.2716C36.906 37.3164 36.9946 37.295 37.1209 37.215L37.1249 53.5548Z" fill="#EFA26F"/>
<path d="M23.3747 37.7985H61.904C63.2418 37.7985 64.3256 36.7154 64.3256 35.3799V19.9683C64.3256 18.6322 63.2412 17.5498 61.904 17.5498H23.3747C22.0369 17.5498 20.9531 18.6329 20.9531 19.9683V35.3799C20.9531 36.7154 22.0376 37.7985 23.3747 37.7985Z" fill="#699DEE"/>
<path d="M62.1843 14.9884H47.1037C45.9848 14.9884 45.0781 14.0822 45.0781 12.9653V10.109C45.0781 8.99143 45.9854 8.08594 47.1037 8.08594H62.1843C63.3033 8.08594 64.2099 8.99208 64.2099 10.109V12.9653C64.2099 14.0822 63.3033 14.9884 62.1843 14.9884Z" fill="#9ABFF6"/>
<path d="M61.5155 65.598H44.1293C42.7895 65.598 41.7031 64.513 41.7031 63.1749V59.5042C41.7031 58.1661 42.7895 57.0811 44.1293 57.0811H61.5155C62.8553 57.0811 63.9417 58.1661 63.9417 59.5042V63.1749C63.9417 64.513 62.856 65.598 61.5155 65.598Z" fill="#9ABFF6"/>
<path d="M68.2653 53.5523H51.8398C50.2343 53.5523 48.9336 52.2526 48.9336 50.6497V44.2306C48.9336 42.6272 50.2349 41.3281 51.8398 41.3281H68.2653C69.8708 41.3281 71.1715 42.6278 71.1715 44.2306V50.6497C71.1715 52.2526 69.8702 53.5523 68.2653 53.5523Z" fill="#F99746"/>
<path d="M114.217 114.967H84.2524C82.8156 114.005 75.3535 108.921 72.2656 105.131C71.6116 104.328 69.2181 97.4066 67.3787 91.7869C66.2305 88.2768 65.2978 85.2728 65.1402 84.584C65.0854 84.3439 65.049 83.8684 65.0268 83.2244V83.2179C64.9487 80.9197 65.0555 76.4879 65.1656 72.9674L65.1662 72.9511L65.1682 72.905C65.1734 72.7501 65.1779 72.5979 65.1831 72.447V72.4418C65.1838 72.4268 65.1838 72.4112 65.1844 72.3963C65.2046 71.7848 65.2242 71.2085 65.2424 70.6842C65.2887 69.3741 65.3277 68.3886 65.344 68.0028L65.3505 67.8233C65.3505 67.8233 65.3512 67.8233 65.3518 67.8226C65.3994 67.796 66.8407 67.0277 68.7673 68.4139C69.2324 68.7489 69.6623 69.5582 70.0543 70.6139C70.3051 71.2878 70.5402 72.0619 70.7591 72.8776C71.6006 76.015 72.2043 79.7657 72.5267 80.7701C73.0465 82.3931 79.1728 89.5303 79.5558 89.974C79.5616 89.9818 79.5681 89.9889 79.574 89.9961V78.7249L74.949 66.3655L73.0504 61.2916L72.0962 58.7417C72.0962 58.7417 70.6327 56.342 69.405 53.4551C68.8676 52.1919 68.3753 50.8356 68.0704 49.5463C67.9975 49.2392 67.9356 48.9355 67.8861 48.6382C67.8861 48.6375 67.8861 48.6375 67.8861 48.6369C67.7057 47.5473 67.6933 46.5364 67.9441 45.7136C68.3915 44.248 69.3998 43.9722 70.1742 44.0021C70.2543 44.0047 70.3318 44.0119 70.4067 44.0203C70.4823 44.0294 70.5572 44.0437 70.6295 44.0632C70.7656 44.099 70.8945 44.1537 71.0144 44.2233C71.0157 44.2233 71.0157 44.2239 71.0163 44.2246C71.215 44.3404 71.3863 44.4997 71.5192 44.6942C71.5192 44.6942 72.1731 45.547 73.0504 46.6932C73.6275 47.4478 74.3016 48.3292 74.949 49.1788C76.1018 50.6925 77.1726 52.1047 77.467 52.5184C79.0582 54.7555 83.3425 62.0456 83.3425 62.0456L88.3577 62.2557C89.1523 62.2889 89.9084 62.605 90.4894 63.1469C92.2727 64.8102 96.1175 68.4094 96.589 68.9447C96.589 69.1204 99.5773 70.5554 101.885 71.8329C103.536 72.5296 106.672 74.9989 106.672 74.9989C107.322 75.572 107.817 76.1425 108.068 76.6876C109.143 79.0248 112.06 99.3522 113.454 109.401C113.903 112.631 114.194 114.8 114.217 114.967Z" fill="#FFB27D"/>
<path d="M83.8359 61.6465C83.8359 61.6465 88.4818 69.2209 89.0966 69.5624C89.7115 69.9039 92.1031 70.3814 92.376 69.5624C92.6496 68.7428 83.8359 61.6465 83.8359 61.6465Z" fill="#EFA26F"/>
<path d="M107.181 74.6216C107.173 74.6144 107.165 74.6079 107.157 74.6008C107.157 74.6008 104.021 72.1315 102.37 71.4348C100.251 70.2613 97.5594 68.9564 97.1328 68.6143C97.6246 69.1756 101.085 73.0864 102.416 73.3798C103.585 73.6374 106.241 74.3627 107.181 74.6216Z" fill="#EFA26F"/>
<path d="M80.0703 89.598V78.3262C80.0703 78.3262 82.7511 82.8055 82.9563 85.2618C83.1615 87.718 81.8425 91.6952 80.0703 89.598Z" fill="#EFA26F"/>
<path d="M70.3372 48.2347C69.9451 47.5634 69.243 46.3463 69.002 45.6653C68.9336 45.4727 68.9421 45.0876 69.1792 44.6772C69.3211 44.4313 69.5445 44.1756 69.8826 43.9479C70.0415 43.8406 70.2024 43.7456 70.3763 43.6819C70.5795 43.6084 70.7912 43.5681 71.0081 43.5655C71.2041 43.5635 71.408 43.6773 71.548 43.879C71.5486 43.8796 71.5493 43.8809 71.5499 43.8816C72.0156 44.5588 72.6044 45.4805 73.0043 46.3151C73.2818 46.8914 73.1939 47.5569 72.7901 47.8496L72.6018 47.9875L71.6366 48.6914C71.2347 48.9828 70.6563 48.7837 70.3372 48.2347Z" fill="#FFD3B6"/>
<path d="M70.3372 48.2378C69.9451 47.5665 69.243 46.3494 69.002 45.6683C68.9336 45.4758 68.9421 45.0907 69.1792 44.6802C69.2423 44.6282 69.3101 44.5781 69.383 44.528C69.5419 44.4207 69.7028 44.3257 69.8767 44.262C70.0799 44.1885 70.2916 44.1488 70.5085 44.1455C70.7045 44.1436 70.9084 44.2574 71.0484 44.4591C71.0491 44.4597 71.0497 44.461 71.0504 44.4617C71.5161 45.1388 72.1049 46.0606 72.5048 46.8952C72.6826 47.2647 72.7106 47.6699 72.6012 47.99L71.6359 48.6938C71.2347 48.9859 70.6563 48.7868 70.3372 48.2378Z" fill="#FFC197"/>
<path d="M90.0391 52.6166L101.875 56.4812L94.7852 49.5801L94.0655 51.2662L91.0186 51.2811L90.0391 52.6166Z" fill="#9EC3F6"/>
<path d="M101.871 56.4783L92.6851 49.4997L82.8711 47.2607L101.871 56.4783Z" fill="white"/>
<path d="M94.7734 49.5787L101.863 56.4799L97.1371 46.8115L94.7734 49.5787Z" fill="white"/>
<path d="M20.2579 8.58014L9.19531 10.1563L16.5363 5.15918L16.9102 6.76135L19.6001 7.24792L20.2579 8.58014Z" fill="#9EC3F6"/>
<path d="M9.19531 10.1555L18.401 5.41531L27.4237 4.96191L9.19531 10.1555Z" fill="white"/>
<path d="M16.5363 5.15812L9.19531 10.1552L14.8781 2.34473L16.5363 5.15812Z" fill="white"/>
<path d="M37.6199 26.9121C37.6199 28.3536 37.134 29.6812 36.3153 30.7409C36.0437 31.0928 35.7356 31.4148 35.397 31.701C34.3014 32.6293 32.8842 33.188 31.3353 33.188C29.9278 33.188 28.6291 32.7268 27.5818 31.9456C27.12 31.6021 26.7071 31.1962 26.3554 30.7402C25.5367 29.6806 25.0508 28.3529 25.0508 26.9114C25.0508 23.4449 27.8645 20.6348 31.3353 20.6348C34.8062 20.6348 37.6199 23.4456 37.6199 26.9121Z" fill="white"/>
<path d="M49.0696 23.7474H41.9305C41.683 23.7474 41.4805 23.5451 41.4805 23.2979V23.0833C41.4805 22.8361 41.683 22.6338 41.9305 22.6338H49.0696C49.3171 22.6338 49.5197 22.8361 49.5197 23.0833V23.2979C49.519 23.5451 49.3171 23.7474 49.0696 23.7474Z" fill="white"/>
<path d="M49.1523 27.7508H41.84C41.64 27.7508 41.4766 27.5874 41.4766 27.3876C41.4766 27.1878 41.64 27.0244 41.84 27.0244H49.1523C49.3523 27.0244 49.5158 27.1878 49.5158 27.3876C49.5158 27.5868 49.3523 27.7508 49.1523 27.7508Z" fill="white"/>
<path d="M45.9153 29.4679H41.7547C41.6016 29.4679 41.4766 29.343 41.4766 29.19V29.0201C41.4766 28.8672 41.6016 28.7422 41.7547 28.7422H45.9153C46.0684 28.7422 46.1934 28.8672 46.1934 29.0201V29.19C46.1941 29.343 46.0684 29.4679 45.9153 29.4679Z" fill="white"/>
<path d="M54.3878 29.4686H47.6655C47.4734 29.4686 47.3164 29.3117 47.3164 29.1197V29.0911C47.3164 28.8991 47.4734 28.7422 47.6655 28.7422H54.3878C54.5799 28.7422 54.7369 28.8991 54.7369 29.0911V29.1197C54.7369 29.3117 54.5799 29.4686 54.3878 29.4686Z" fill="white"/>
<path d="M60.6741 27.7508H51.0861C50.8861 27.7508 50.7227 27.5874 50.7227 27.3876C50.7227 27.1878 50.8861 27.0244 51.0861 27.0244H60.6741C60.8741 27.0244 61.0376 27.1878 61.0376 27.3876C61.0376 27.5868 60.8734 27.7508 60.6741 27.7508Z" fill="white"/>
<path d="M49.1523 31.1854H41.84C41.64 31.1854 41.4766 31.022 41.4766 30.8222C41.4766 30.6224 41.64 30.459 41.84 30.459H49.1523C49.3523 30.459 49.5158 30.6224 49.5158 30.8222C49.5158 31.022 49.3523 31.1854 49.1523 31.1854Z" fill="white"/>
<path d="M60.6741 31.1854H51.0861C50.8861 31.1854 50.7227 31.022 50.7227 30.8222C50.7227 30.6224 50.8861 30.459 51.0861 30.459H60.6741C60.8741 30.459 61.0376 30.6224 61.0376 30.8222C61.0376 31.022 60.8734 31.1854 60.6741 31.1854Z" fill="white"/>
<path d="M56.0284 23.7474H50.9012C50.6889 23.7474 50.5156 23.5744 50.5156 23.3623V23.0189C50.5156 22.8075 50.6889 22.6338 50.9012 22.6338H56.0284C56.2401 22.6338 56.4139 22.8068 56.4139 23.0189V23.3623C56.4139 23.5744 56.2407 23.7474 56.0284 23.7474Z" fill="white"/>
<path d="M49.5479 59.4985H44.4721C44.2963 59.4985 44.1523 59.3547 44.1523 59.1789V59.0266C44.1523 58.8509 44.2963 58.707 44.4721 58.707H49.5479C49.7237 58.707 49.8676 58.8509 49.8676 59.0266V59.1789C49.8676 59.3547 49.7237 59.4985 49.5479 59.4985Z" fill="#699DEE"/>
<path d="M49.6097 61.5275H44.4109C44.2689 61.5275 44.1523 61.411 44.1523 61.2691C44.1523 61.1272 44.2689 61.0107 44.4109 61.0107H49.6097C49.7517 61.0107 49.8683 61.1266 49.8683 61.2691C49.8683 61.4117 49.7517 61.5275 49.6097 61.5275Z" fill="#699DEE"/>
<path d="M47.308 62.7492H44.3503C44.2416 62.7492 44.1523 62.6601 44.1523 62.5514V62.4303C44.1523 62.3216 44.2416 62.2324 44.3503 62.2324H47.308C47.4167 62.2324 47.506 62.3216 47.506 62.4303V62.5514C47.506 62.6601 47.4167 62.7492 47.308 62.7492Z" fill="#699DEE"/>
<path d="M53.3361 62.7486H48.5567C48.42 62.7486 48.3086 62.6373 48.3086 62.5006V62.4804C48.3086 62.3437 48.4206 62.2324 48.5567 62.2324H53.3361C53.4729 62.2324 53.5843 62.3437 53.5843 62.4804V62.5006C53.5843 62.6366 53.4729 62.7486 53.3361 62.7486Z" fill="#699DEE"/>
<path d="M57.7979 61.5275H50.9812C50.8392 61.5275 50.7227 61.411 50.7227 61.2691C50.7227 61.1272 50.8392 61.0107 50.9812 61.0107H57.7979C57.9399 61.0107 58.0565 61.1266 58.0565 61.2691C58.0565 61.4117 57.9399 61.5275 57.7979 61.5275Z" fill="#699DEE"/>
<path d="M49.6097 63.9719H44.4109C44.2689 63.9719 44.1523 63.8554 44.1523 63.7135C44.1523 63.5716 44.2689 63.4551 44.4109 63.4551H49.6097C49.7517 63.4551 49.8683 63.5716 49.8683 63.7135C49.8683 63.856 49.7517 63.9719 49.6097 63.9719Z" fill="#699DEE"/>
<path d="M57.7979 63.9719H50.9812C50.8392 63.9719 50.7227 63.8554 50.7227 63.7135C50.7227 63.5716 50.8392 63.4551 50.9812 63.4551H57.7979C57.9399 63.4551 58.0565 63.5716 58.0565 63.7135C58.0565 63.856 57.9399 63.9719 57.7979 63.9719Z" fill="#699DEE"/>
<path d="M54.4978 59.4992H50.8523C50.7019 59.4992 50.5781 59.3761 50.5781 59.2251V58.9811C50.5781 58.8307 50.7012 58.707 50.8523 58.707H54.4978C54.6482 58.707 54.772 58.83 54.772 58.9811V59.2251C54.772 59.3761 54.6482 59.4992 54.4978 59.4992Z" fill="#699DEE"/>
<path d="M52.9307 10.2055H47.855C47.6791 10.2055 47.5352 10.0617 47.5352 9.88596V9.73365C47.5352 9.55791 47.6791 9.41406 47.855 9.41406H52.9307C53.1065 9.41406 53.2505 9.55791 53.2505 9.73365V9.88596C53.2511 10.061 53.1072 10.2055 52.9307 10.2055Z" fill="#699DEE"/>
<path d="M52.9925 12.2316H47.7937C47.6517 12.2316 47.5352 12.1151 47.5352 11.9732C47.5352 11.8314 47.6517 11.7148 47.7937 11.7148H52.9925C53.1345 11.7148 53.2511 11.8314 53.2511 11.9732C53.2511 12.1151 53.1345 12.2316 52.9925 12.2316Z" fill="#699DEE"/>
<path d="M50.6908 13.4533H47.7332C47.6244 13.4533 47.5352 13.3642 47.5352 13.2555V13.1344C47.5352 13.0257 47.6244 12.9365 47.7332 12.9365H50.6908C50.7996 12.9365 50.8888 13.0257 50.8888 13.1344V13.2555C50.8888 13.3648 50.7996 13.4533 50.6908 13.4533Z" fill="#699DEE"/>
<path d="M56.7189 13.4527H51.9396C51.8028 13.4527 51.6914 13.3414 51.6914 13.2047V13.1845C51.6914 13.0478 51.8028 12.9365 51.9396 12.9365H56.7189C56.8557 12.9365 56.9671 13.0478 56.9671 13.1845V13.2047C56.9671 13.3414 56.8551 13.4527 56.7189 13.4527Z" fill="#699DEE"/>
<path d="M61.1807 12.2316H54.364C54.2221 12.2316 54.1055 12.1151 54.1055 11.9732C54.1055 11.8314 54.2221 11.7148 54.364 11.7148H61.1807C61.3227 11.7148 61.4393 11.8314 61.4393 11.9732C61.4387 12.1151 61.3227 12.2316 61.1807 12.2316Z" fill="#699DEE"/>
<path d="M57.8806 10.2062H54.2351C54.0847 10.2062 53.9609 10.0832 53.9609 9.93217V9.68809C53.9609 9.53773 54.084 9.41406 54.2351 9.41406H57.8806C58.031 9.41406 58.1548 9.53708 58.1548 9.68809V9.93217C58.1548 10.0825 58.0317 10.2062 57.8806 10.2062Z" fill="#699DEE"/>
<path d="M57.4224 44.4344H51.866C51.6732 44.4344 51.5156 44.2768 51.5156 44.0842V43.9176C51.5156 43.7249 51.6732 43.5674 51.866 43.5674H57.4224C57.6152 43.5674 57.7728 43.7249 57.7728 43.9176V44.0842C57.7722 44.2768 57.6146 44.4344 57.4224 44.4344Z" fill="#ED7D2B"/>
<path d="M57.4902 46.6558H51.7983C51.6426 46.6558 51.5156 46.5289 51.5156 46.3733C51.5156 46.2177 51.6426 46.0908 51.7983 46.0908H57.4902C57.6458 46.0908 57.7728 46.2177 57.7728 46.3733C57.7728 46.5282 57.6458 46.6558 57.4902 46.6558Z" fill="#ED7D2B"/>
<path d="M54.9709 47.9914H51.7325C51.6133 47.9914 51.5156 47.8938 51.5156 47.7747V47.6425C51.5156 47.5234 51.6133 47.4258 51.7325 47.4258H54.9709C55.09 47.4258 55.1878 47.5234 55.1878 47.6425V47.7747C55.1878 47.8938 55.09 47.9914 54.9709 47.9914Z" fill="#ED7D2B"/>
<path d="M61.5707 47.9908H56.338C56.1888 47.9908 56.0664 47.8684 56.0664 47.7193V47.6972C56.0664 47.5481 56.1888 47.4258 56.338 47.4258H61.5707C61.7198 47.4258 61.8423 47.5481 61.8423 47.6972V47.7193C61.8423 47.8684 61.7205 47.9908 61.5707 47.9908Z" fill="#ED7D2B"/>
<path d="M66.4603 46.6558H58.9975C58.8418 46.6558 58.7148 46.5289 58.7148 46.3733C58.7148 46.2177 58.8418 46.0908 58.9975 46.0908H66.4603C66.616 46.0908 66.743 46.2177 66.743 46.3733C66.743 46.5282 66.616 46.6558 66.4603 46.6558Z" fill="#ED7D2B"/>
<path d="M57.4902 49.3296H51.7983C51.6426 49.3296 51.5156 49.2027 51.5156 49.0471C51.5156 48.8916 51.6426 48.7646 51.7983 48.7646H57.4902C57.6458 48.7646 57.7728 48.8916 57.7728 49.0471C57.7728 49.2027 57.6458 49.3296 57.4902 49.3296Z" fill="#ED7D2B"/>
<path d="M66.4603 49.3296H58.9975C58.8418 49.3296 58.7148 49.2027 58.7148 49.0471C58.7148 48.8916 58.8418 48.7646 58.9975 48.7646H66.4603C66.616 48.7646 66.743 48.8916 66.743 49.0471C66.743 49.2027 66.616 49.3296 66.4603 49.3296Z" fill="#ED7D2B"/>
<path d="M57.4902 50.7183H51.7983C51.6426 50.7183 51.5156 50.5914 51.5156 50.4358C51.5156 50.2802 51.6426 50.1533 51.7983 50.1533H57.4902C57.6458 50.1533 57.7728 50.2802 57.7728 50.4358C57.7728 50.5914 57.6458 50.7183 57.4902 50.7183Z" fill="#ED7D2B"/>
<path d="M66.4603 50.7183H58.9975C58.8418 50.7183 58.7148 50.5914 58.7148 50.4358C58.7148 50.2802 58.8418 50.1533 58.9975 50.1533H66.4603C66.616 50.1533 66.743 50.2802 66.743 50.4358C66.743 50.5914 66.616 50.7183 66.4603 50.7183Z" fill="#ED7D2B"/>
<path d="M62.8378 44.435H58.8471C58.6823 44.435 58.5469 44.3003 58.5469 44.135V43.8674C58.5469 43.7028 58.6817 43.5674 58.8471 43.5674H62.8384C63.0032 43.5674 63.1387 43.7021 63.1387 43.8674V44.135C63.138 44.3003 63.0032 44.435 62.8378 44.435Z" fill="#ED7D2B"/>
<path d="M44.2471 6.08621L43.8608 6.36284L43.4727 6.08882C43.5586 5.96775 43.7006 5.8877 43.8608 5.8877C44.0198 5.88835 44.1611 5.96645 44.2471 6.08621Z" fill="white"/>
<path d="M43.865 5.21289C43.4768 5.21289 43.1336 5.4062 42.9258 5.70106L43.1707 5.87289C43.325 5.65484 43.5791 5.51295 43.865 5.51295C44.149 5.51295 44.4017 5.65289 44.5554 5.86768L44.7996 5.69259C44.5905 5.40165 44.2493 5.21289 43.865 5.21289Z" fill="white"/>
<path d="M43.8667 3.93066C43.0454 3.93066 42.3192 4.33852 41.8789 4.96235L42.1245 5.13408C42.51 4.58832 43.1477 4.23054 43.8667 4.23054C44.5799 4.23054 45.2137 4.58246 45.6005 5.12107L45.8435 4.94609C45.4025 4.33137 44.6815 3.93066 43.8667 3.93066Z" fill="white"/>
<path d="M43.8509 4.63379C43.2666 4.63379 42.7488 4.92261 42.4336 5.36495L42.6785 5.53668C42.9397 5.1724 43.3676 4.93367 43.8509 4.93367C44.3302 4.93367 44.7555 5.1685 45.0174 5.52757L45.2603 5.35389C44.9444 4.9174 44.4305 4.63379 43.8509 4.63379Z" fill="white"/>
<path d="M41.6953 46.9416C41.6953 47.5082 41.8861 48.0292 42.2079 48.4449C42.3147 48.5835 42.4359 48.7097 42.5687 48.8222C42.7009 48.9347 42.8449 49.0323 42.9986 49.1149C43.3458 49.301 43.7418 49.407 44.1638 49.407C44.6907 49.407 45.1779 49.2418 45.5785 48.9621C45.5987 48.9484 45.6188 48.9334 45.6384 48.9191C45.8195 48.7838 45.9816 48.6251 46.1197 48.4456C46.4415 48.0292 46.6323 47.5082 46.6323 46.9423C46.6323 45.5808 45.527 44.4775 44.1638 44.4775C42.8006 44.4769 41.6953 45.5808 41.6953 46.9416Z" fill="white"/>
<path d="M44.8316 48.5206L44.6043 48.3196C44.5854 48.3235 44.5665 48.3268 44.5476 48.33C44.5066 48.3014 44.4617 48.2734 44.4148 48.2474C44.4298 48.1557 44.4421 48.0705 44.4525 47.995C44.4871 47.7309 44.491 47.5716 44.491 47.5468C44.6115 47.541 44.6929 47.528 44.6929 47.528C44.9208 47.4753 44.9319 46.6979 44.8792 46.2927C44.9221 46.2933 44.9638 46.2875 45.0062 46.2686C45.1788 46.1925 45.1885 45.9317 45.1885 45.9317C45.1885 45.9317 45.1384 46.0247 45.0648 46.0546C45.0648 46.0546 45.3533 45.6597 45.0185 45.3898C44.6851 45.1192 44.3444 45.2961 44.1503 45.3078C43.7244 45.3338 43.4489 45.3592 43.3101 45.6389C43.1727 45.9147 43.2268 46.6732 43.4899 46.9523C43.4945 46.9783 43.499 47.0037 43.5023 47.0297C43.5179 47.1299 43.5544 47.2118 43.6065 47.2775C43.5472 47.6041 43.4124 47.848 43.2912 48.01C43.2092 48.0737 43.1343 48.1557 43.0646 48.2539C43.0626 48.2552 43.06 48.2572 43.06 48.2572C43.06 48.2572 43.0607 48.2572 43.062 48.2578C42.9337 48.44 42.8282 48.6774 42.7435 48.9558C42.7428 48.9571 42.7428 48.9584 42.7422 48.9597C42.8816 49.0579 43.0327 49.1406 43.1922 49.2069C43.2027 49.2115 43.2131 49.2154 43.2235 49.2199C43.2261 49.2206 43.2281 49.2219 43.2307 49.2225C43.2476 49.2297 43.2652 49.2362 43.2821 49.2427C43.3238 49.2589 43.3655 49.2739 43.4078 49.2876C43.4521 49.3019 43.4971 49.3149 43.542 49.3266C43.5628 49.3318 43.5837 49.337 43.6045 49.3416C43.6228 49.3461 43.641 49.35 43.6599 49.3533C43.6625 49.3539 43.6651 49.3546 43.6677 49.3552C43.6801 49.3578 43.6925 49.3598 43.7048 49.3624C43.7335 49.3676 43.7628 49.3728 43.7921 49.3773C43.7986 49.378 43.8058 49.3793 43.8123 49.3799C43.8286 49.3825 43.8442 49.3845 43.8605 49.3864C43.8833 49.389 43.9061 49.3916 43.9289 49.3942C43.9543 49.3968 43.9803 49.3988 44.0064 49.4001C44.0305 49.4021 44.0552 49.4034 44.08 49.404C44.1054 49.4047 44.1314 49.4053 44.1575 49.4053C44.1855 49.4053 44.2129 49.4047 44.2409 49.404C44.2435 49.404 44.2454 49.404 44.248 49.4034C44.2545 49.4034 44.2617 49.4034 44.2682 49.4027C44.2819 49.4027 44.2956 49.402 44.3093 49.4007C44.3112 49.4001 44.3125 49.4001 44.3145 49.4001C44.3405 49.3988 44.3659 49.3968 44.392 49.3942C44.7254 49.363 45.04 49.2641 45.3221 49.1132C45.1788 48.868 45.0003 48.6767 44.8316 48.5206Z" fill="#699DEE"/>
<path d="M65.9336 61.2717C65.9336 61.8415 66.1257 62.3665 66.4494 62.786C66.5569 62.9252 66.6787 63.0527 66.8122 63.1659C67.2453 63.5328 67.8061 63.754 68.4184 63.754C68.9746 63.754 69.4885 63.5718 69.9027 63.2629C70.0857 63.1269 70.2486 62.9662 70.388 62.786C70.7117 62.3671 70.9038 61.8422 70.9038 61.2717C70.9038 59.9011 69.7913 58.79 68.419 58.79C67.0467 58.79 65.9336 59.9004 65.9336 61.2717Z" fill="white"/>
<path d="M69.6809 62.6771C69.6776 62.6706 69.6737 62.6641 69.6685 62.6582C69.6588 62.6439 69.6451 62.6302 69.6288 62.6172L69.6281 62.6166C69.5969 62.5912 69.5545 62.5684 69.5057 62.5483C69.5037 62.5476 69.5024 62.547 69.5005 62.5463C69.2849 62.452 69.0016 62.4214 69.0016 62.4214C68.9208 62.4091 68.857 62.4013 68.827 62.398C68.7437 62.331 68.6316 62.0649 68.6134 61.6571L68.614 61.6584C68.614 61.6584 68.7072 61.4424 68.8303 61.5101C69.0224 61.6148 69.3937 61.1907 69.2751 60.6332C69.2621 60.5734 69.2465 60.5181 69.2295 60.468C69.2699 60.4849 69.3149 60.4992 69.3572 60.4992C69.4686 60.4992 69.6373 60.2143 69.6601 60.1187C69.6835 60.023 69.6581 59.7088 69.505 59.6158C69.3559 59.5241 69.1195 59.6295 69.109 59.6334C69.1853 59.5267 69.4458 59.5482 69.4933 59.5534C68.885 59.4272 68.7593 59.8168 68.7489 59.852C68.362 59.5026 67.7712 60.1063 67.626 60.2676C67.6162 60.2761 67.6065 60.2852 67.5967 60.2949C67.5635 60.3138 67.5263 60.3457 67.4873 60.3925C67.4111 60.4849 67.387 60.6026 67.387 60.7152C67.387 60.9155 67.4638 61.1009 67.4638 61.1009C67.499 61.4385 67.5967 61.8568 67.753 61.8691C67.753 61.8691 67.8084 61.8698 67.8917 61.8626C67.8917 61.8665 67.8924 61.8698 67.8924 61.8737C67.895 61.9303 67.8969 61.994 67.8976 62.0578V62.0962C67.8983 62.2659 67.8878 62.4273 67.8494 62.4474C67.8364 62.4487 67.8253 62.4494 67.8155 62.4507C67.7999 62.4513 67.7706 62.4552 67.7706 62.4552C67.6351 62.4728 67.5387 62.4865 67.4703 62.4982C67.3349 62.5209 67.301 62.5372 67.2678 62.5632C67.26 62.5704 67.2521 62.5788 67.2443 62.5879C67.1453 62.6628 66.9636 62.8332 66.8047 63.1643C67.2378 63.5312 67.7986 63.7523 68.4108 63.7523C68.9677 63.7523 69.4809 63.5702 69.8952 63.2612C69.8255 63.0199 69.7532 62.8137 69.6809 62.6771Z" fill="#F99746"/>
<path d="M65.9336 11.385C65.9336 11.9548 66.1257 12.4797 66.4494 12.8987C66.5569 13.0379 66.6787 13.1654 66.8122 13.2786C67.2453 13.6454 67.8061 13.8666 68.4184 13.8666C68.9746 13.8666 69.4885 13.6838 69.9027 13.3755C70.0857 13.2395 70.2486 13.0789 70.388 12.8987C70.7117 12.4797 70.9038 11.9548 70.9038 11.385C70.9038 10.0144 69.7913 8.90332 68.419 8.90332C67.0467 8.90332 65.9336 10.0144 65.9336 11.385Z" fill="white"/>
<path d="M69.6809 12.7932C69.6776 12.7867 69.6737 12.7809 69.6685 12.7744C69.6588 12.7601 69.6451 12.7464 69.6288 12.7334L69.6281 12.7327C69.5969 12.708 69.5545 12.6853 69.5057 12.6644C69.5037 12.6638 69.5024 12.6631 69.5005 12.6625C69.2849 12.5688 69.0016 12.5376 69.0016 12.5376V12.5382C68.9208 12.5252 68.857 12.5174 68.827 12.5142C68.8068 12.4979 68.7853 12.4712 68.7638 12.4329V12.4322C68.6948 12.3112 68.6271 12.0836 68.6134 11.7733L68.614 11.7746C68.614 11.7746 68.7072 11.5593 68.8303 11.6263C69.0224 11.731 69.3937 11.3075 69.2751 10.75C69.2621 10.6895 69.2465 10.6342 69.2295 10.5842C69.2699 10.6011 69.3149 10.6154 69.3572 10.6154C69.4686 10.6154 69.6373 10.3305 69.6601 10.2355C69.6835 10.1392 69.6581 9.82503 69.505 9.73201C69.3559 9.64094 69.1195 9.74567 69.109 9.75022C69.1853 9.64354 69.4464 9.66501 69.4933 9.66956C68.885 9.54336 68.7593 9.93366 68.7489 9.96814C68.362 9.61947 67.7712 10.2231 67.626 10.3838C67.6162 10.3923 67.6065 10.4014 67.5967 10.4111C67.5635 10.4306 67.5263 10.4619 67.4873 10.5093C67.4111 10.6011 67.387 10.7188 67.387 10.8313C67.387 11.0323 67.4638 11.2171 67.4638 11.2171C67.499 11.5553 67.5967 11.973 67.753 11.9853C67.753 11.9853 67.8084 11.986 67.8917 11.9795C67.8917 11.9827 67.8924 11.986 67.8924 11.9899C67.895 12.0465 67.8969 12.1102 67.8976 12.1746V12.213C67.8983 12.3828 67.8878 12.5435 67.8494 12.5643C67.8364 12.5649 67.8253 12.5662 67.8155 12.5669C67.7999 12.5682 67.7706 12.5714 67.7706 12.5714C67.6351 12.589 67.5387 12.6026 67.4703 12.6144C67.3349 12.6378 67.301 12.6534 67.2678 12.6794C67.26 12.6872 67.2521 12.6957 67.2443 12.7041C67.1453 12.7789 66.9636 12.95 66.8047 13.2811C66.8281 13.3013 66.8522 13.3208 66.877 13.3397C66.8809 13.3429 66.8855 13.3462 66.8894 13.3494C66.9076 13.3637 66.9258 13.3774 66.9447 13.3904C66.9577 13.4008 66.9708 13.4106 66.9845 13.4197C66.9981 13.4294 67.0118 13.4385 67.0255 13.447C67.045 13.4613 67.0652 13.4743 67.0861 13.4867C67.0997 13.4958 67.1134 13.5042 67.1277 13.5127C67.1447 13.5231 67.1623 13.5335 67.1798 13.5433C67.1994 13.5543 67.2189 13.5654 67.2385 13.5758C67.2404 13.5764 67.2417 13.5777 67.2437 13.5784C67.2443 13.579 67.2456 13.5797 67.2469 13.5803H67.2476C67.2502 13.5816 67.2534 13.5836 67.2561 13.5849C67.2717 13.5934 67.2873 13.6012 67.3029 13.609C67.3042 13.609 67.3049 13.6096 67.3062 13.6103C67.3108 13.6129 67.316 13.6155 67.3205 13.6174C67.329 13.622 67.3381 13.6265 67.3472 13.6304C67.3557 13.6343 67.3642 13.6382 67.3733 13.6428C67.3928 13.6519 67.4137 13.661 67.4339 13.6695C67.4541 13.6779 67.4749 13.6864 67.4951 13.6942C67.5049 13.6981 67.514 13.702 67.5231 13.7052C67.5322 13.7085 67.5413 13.7124 67.5511 13.7156C67.57 13.7228 67.5895 13.7293 67.6084 13.7358C67.6286 13.743 67.6481 13.7488 67.6683 13.7553C67.6853 13.7605 67.7022 13.7657 67.7191 13.7709C67.7211 13.7716 67.7224 13.7716 67.7243 13.7722C67.7348 13.7755 67.7458 13.7787 67.7569 13.7813C67.8162 13.7976 67.8768 13.8119 67.938 13.8236C67.9647 13.8288 67.9914 13.834 68.0181 13.8379C68.0253 13.8392 68.0318 13.8405 68.0389 13.8412C68.0402 13.8412 68.0422 13.8418 68.0435 13.8418C68.0441 13.8418 68.0454 13.8418 68.0461 13.8425C68.0637 13.8451 68.08 13.847 68.0982 13.849C68.1021 13.8496 68.1054 13.8503 68.1093 13.8503C68.1119 13.8509 68.1145 13.8509 68.1171 13.8516C68.1334 13.8542 68.1497 13.8555 68.1653 13.8568C68.1679 13.8568 68.1712 13.8575 68.1738 13.8575C68.1783 13.8581 68.1835 13.8588 68.1887 13.8594C68.218 13.862 68.2467 13.864 68.276 13.8653H68.2806C68.2897 13.8659 68.2982 13.8666 68.3079 13.8666C68.3138 13.8666 68.319 13.8672 68.3249 13.8672C68.3535 13.8685 68.3822 13.8692 68.4108 13.8692C68.9677 13.8692 69.4809 13.6864 69.8952 13.3774C69.8255 13.1361 69.7532 12.9305 69.6809 12.7932Z" fill="#F99746"/>
<path d="M99.6508 109.938L90.6998 114.566H84.7409C83.3041 113.604 75.8419 108.52 72.754 104.731C72.1001 103.927 69.7065 97.006 67.8672 91.3864V91.3838C68.1114 92.1299 73.2445 103.048 74.706 104.29C76.1676 105.53 83.8414 112.757 85.9608 112.683C88.0137 112.613 98.9428 110.101 99.6202 109.945C99.6306 109.943 99.6404 109.94 99.6508 109.938Z" fill="#EFA26F"/>
<path d="M117.669 114.568H85.3984C87.017 113.934 93.209 111.571 99.6278 109.947C99.6382 109.945 99.648 109.942 99.6584 109.939C105.171 108.547 110.846 107.702 113.928 108.969L113.95 109.002L117.669 114.568Z" fill="#B4CFF1"/>
<path d="M65.6732 71.9971C65.6739 71.9971 65.6745 71.9971 65.6752 71.9964C66.219 71.7974 66.9824 71.666 67.3536 72.2853C67.932 73.2493 65.784 81.7552 65.5156 82.8252L65.6732 71.9971Z" fill="#EFA26F"/>
<path d="M65.8367 67.4254L65.6523 72.5702C65.6523 72.5702 66.7355 72.7465 67.3516 72.2872C67.9678 71.828 67.6408 67.3649 65.8367 67.4254Z" fill="#FFC197"/>
<path d="M44.161 97.2167C41.0601 97.8516 34.3769 95.4188 34.3769 95.4188L35.4548 85.0199L27.9028 93.6585C24.0594 92.23 18.0484 88.5027 14.4766 86.183C23.6289 85.1864 30.4618 76.166 30.4618 76.166C36.8063 79.598 43.9676 81.6029 43.9676 81.6029C43.9649 87.7832 44.161 97.2167 44.161 97.2167Z" fill="#B4CFF1"/>
<path d="M22.8907 87.7721C22.8972 87.0787 23.4651 86.5219 24.1594 86.5284C24.8538 86.5349 25.4113 87.1021 25.4048 87.7956C25.3983 88.489 24.8303 89.0458 24.136 89.0393C23.4417 89.0328 22.8842 88.4656 22.8907 87.7721Z" fill="#F99746"/>
<path d="M35.3764 27.2148H34.5547V29.6229C34.5547 29.8456 34.6121 30.0317 34.7584 30.0317H35.3764H35.9944C36.1407 30.0317 36.1981 29.8456 36.1981 29.6229V27.2148H35.3764Z" fill="#39404A"/>
<path d="M26.9702 27.2148H27.7919V29.6229C27.7919 29.8456 27.7344 30.0317 27.5882 30.0317H26.9702H26.3521C26.2059 30.0317 26.1484 29.8456 26.1484 29.6229V27.2148H26.9702Z" fill="#39404A"/>
<path d="M35.3632 25.5634C35.3632 25.5634 34.5954 24.0932 34.3883 23.9192C34.155 23.7243 32.6717 23.5469 31.1728 23.5469C29.6738 23.5469 28.1905 23.7261 27.9572 23.9192C27.7501 24.0915 26.9823 25.5634 26.9823 25.5634C26.9823 25.5634 26.0039 25.3859 26.0039 26.5465C26.0039 27.7679 26.1658 29.2033 26.6585 29.2033C26.6585 29.2033 27.8075 29.2033 28.288 29.2033C28.6275 29.2033 28.9653 29.0032 29.054 29.0032C29.9994 29.0032 31.1728 29.0032 31.1728 29.0032C31.1728 29.0032 32.3479 29.0032 33.2915 29.0032C33.3803 29.0032 33.718 29.2033 34.0575 29.2033C34.5397 29.2033 35.687 29.2033 35.687 29.2033C36.178 29.2033 36.3416 27.7679 36.3416 26.5465C36.3416 25.3859 35.3632 25.5634 35.3632 25.5634Z" fill="#DD3B4A"/>
<path d="M31.1717 25.2065C32.8987 25.2065 34.3959 25.3597 35.1794 25.5145C34.8242 24.9386 34.4273 24.1539 34.3193 24.0652C34.1505 23.9347 32.8082 23.7363 31.1717 23.7363C29.5352 23.7363 28.193 23.9347 28.0241 24.0652C27.9161 24.1522 27.5192 24.9386 27.1641 25.5145C27.9475 25.3579 29.4464 25.2065 31.1717 25.2065Z" fill="white"/>
<path d="M35.3499 25.5388C35.4404 25.5231 35.6319 25.4831 35.8321 25.403C36.1316 25.2829 36.1873 24.9138 36.1298 24.8494C36.0654 24.778 35.5814 24.7936 35.4596 24.8267C35.3725 24.8494 35.2437 25.0739 35.1758 25.2063C35.2593 25.3682 35.3238 25.49 35.3499 25.5388Z" fill="#39404A"/>
<path d="M26.9875 25.5388C26.897 25.5231 26.7055 25.4831 26.5053 25.403C26.2059 25.2829 26.1502 24.9138 26.2076 24.8494C26.272 24.778 26.756 24.7936 26.8779 24.8267C26.9649 24.8494 27.0937 25.0739 27.1616 25.2063C27.0781 25.3682 27.0137 25.49 26.9875 25.5388Z" fill="#39404A"/>
<path d="M33.4112 27.5386C33.3903 27.4864 33.352 27.4551 33.3102 27.4551H31.1758H29.0414C28.9996 27.4551 28.9613 27.4864 28.9404 27.5386C28.9195 27.5908 28.9213 27.6534 28.9439 27.7021C29.111 28.0727 29.1041 28.4677 29.8022 28.4677C29.978 28.4677 31.174 28.4677 31.174 28.4677C31.174 28.4677 32.3718 28.4677 32.5459 28.4677C33.2458 28.4677 33.2371 28.0727 33.4042 27.7021C33.4286 27.6534 33.4303 27.589 33.4112 27.5386Z" fill="white"/>
<path d="M29.8017 28.3911C29.2795 28.3911 29.2011 28.1734 29.0914 27.874C29.0671 27.8061 29.0427 27.7382 29.0114 27.6703C28.9974 27.639 28.9957 27.5972 29.0096 27.5641C29.0183 27.5397 29.034 27.5293 29.041 27.5293H33.3097C33.3167 27.5293 33.3306 27.5397 33.3411 27.5641C33.3533 27.5972 33.3533 27.639 33.3393 27.6703C33.308 27.7382 33.2836 27.8061 33.2593 27.874C33.1496 28.1752 33.0712 28.3911 32.549 28.3911H29.8017Z" fill="#39404A"/>
<path d="M35.3802 25.947C35.7057 25.8392 35.838 26.4568 35.5699 26.8431C35.2705 27.2746 34.393 27.2328 34.3443 27.1823C34.2938 27.1319 34.6751 26.1819 35.3802 25.947Z" fill="white"/>
<path d="M26.9584 25.947C26.6328 25.8392 26.5005 26.4568 26.7686 26.8431C27.0681 27.2746 27.9455 27.2328 27.9943 27.1823C28.0448 27.1319 27.6635 26.1819 26.9584 25.947Z" fill="white"/>
<path d="M35.3064 25.602C34.2305 26.0996 34.0042 26.5015 33.609 27.2427H33.5898C33.9189 26.472 34.3019 26.0057 35.2611 25.5498L35.3064 25.602Z" fill="#39404A"/>
<path d="M27.0352 25.602C28.1111 26.0996 28.3374 26.5015 28.7326 27.2427H28.7517C28.4227 26.472 28.0397 26.0057 27.0804 25.5498L27.0352 25.602Z" fill="#39404A"/>
<path d="M34.4331 27.486C34.1789 27.486 33.8708 28.4673 33.9857 28.4673C34.4958 28.4673 35.039 28.4186 35.3227 28.3403C35.6727 28.2428 36.1184 27.2789 35.7789 27.345L34.4331 27.486Z" fill="white"/>
<path d="M34.0312 28.3904C34.04 28.2546 34.1636 27.8475 34.322 27.6439C34.3707 27.5813 34.4073 27.5604 34.4264 27.5604L35.8035 27.416C35.8157 27.423 35.8296 27.4734 35.7913 27.5987C35.7113 27.8614 35.4728 28.2181 35.2952 28.2668C35.0358 28.3382 34.5326 28.3886 34.0312 28.3904Z" fill="#39404A"/>
<path d="M27.9044 27.486C28.1586 27.486 28.4667 28.4673 28.3518 28.4673C27.8417 28.4673 27.2986 28.4186 27.0148 28.3403C26.6649 28.2428 26.2192 27.2789 26.5587 27.345L27.9044 27.486Z" fill="white"/>
<path d="M28.3071 28.3901C27.8057 28.3867 27.3025 28.3379 27.0414 28.2649C26.8656 28.2162 26.6253 27.8595 26.5452 27.5968C26.5069 27.4715 26.5209 27.421 26.5278 27.4141L27.9032 27.5585C27.9293 27.5585 27.9676 27.5811 28.0163 27.6437C28.173 27.849 28.2984 28.2562 28.3071 28.3901Z" fill="#39404A"/>
<path d="M33.2642 27.875H29.0703V28.0456H33.2642V27.875Z" fill="white"/>
</svg>
