<svg width="24" height="21" viewBox="0 0 24 21" fill="none" xmlns="http://www.w3.org/2000/svg">
<path d="M9.56613 18.3244C8.86859 18.3244 8.98712 18.06 8.74654 17.3932L6.69531 10.6165L22.4848 1.21338" fill="#D16527" fill-opacity="0.5"/>
<path d="M8.80469 19.3931C9.37885 19.3931 9.63253 19.1533 9.95301 18.8687L13.0152 16.1494L9.1955 14.0459" fill="#D16527" fill-opacity="0.5"/>
<path d="M9.45504 13.5531L18.0372 20.1862C19.0166 20.7515 19.7234 20.4588 19.9674 19.235L23.4608 2.01359C23.8184 0.5135 22.9141 -0.166869 21.9773 0.278096L1.46408 8.55269C0.0638608 9.14021 0.0720238 9.95742 1.20885 10.3216L6.47299 12.0404L18.66 3.99709C19.2354 3.63212 19.7634 3.82833 19.33 4.23071" fill="#D16527"/>
</svg>
