<svg width="27" height="26" viewBox="0 0 27 26" fill="none" xmlns="http://www.w3.org/2000/svg">
<path d="M8.54679 9.3001C10.2531 13.6008 11.933 15.2844 16.126 17L14.414 19.6148C9.59327 17.4587 7.10628 13.642 5.89726 10.6399L8.54679 9.3001Z" fill="#D16527"/>
<path d="M9.67562 3.24918C10.5151 3.21871 11.1757 3.9078 11.1436 4.71331C11.0931 5.98091 11.2176 6.89026 11.5112 8.01293C11.6725 8.62962 11.3714 9.27098 10.8742 9.69388C10.2042 10.2639 9.70099 10.9789 9.30252 11.5932C8.75023 12.4447 6.75796 12.4492 6.28937 11.5562C5.32634 9.72079 4.6057 6.30533 5.85405 3.94171C6.05014 3.57044 6.46195 3.36582 6.89483 3.35011L9.67562 3.24918Z" fill="#D16527"/>
<path d="M22.8483 16.6361C22.9277 15.8335 22.2484 15.1613 21.4086 15.1463C20.0872 15.1226 19.1483 14.9517 17.9971 14.6066C17.3648 14.417 16.6805 14.6691 16.2124 15.1214C15.5813 15.7311 14.809 16.1727 14.1473 16.5196C13.2301 17.0004 13.1123 18.9092 14.0146 19.4089C15.8692 20.436 19.3811 21.3206 21.9108 20.2587C22.3081 20.0919 22.5444 19.7089 22.5853 19.295L22.8483 16.6361Z" fill="#D16527"/>
</svg>
