<svg width="21" height="21" viewBox="0 0 21 21" fill="none" xmlns="http://www.w3.org/2000/svg">
<mask id="mask0_309_254" style="mask-type:alpha" maskUnits="userSpaceOnUse" x="0" y="0" width="21" height="21">
<path fill-rule="evenodd" clip-rule="evenodd" d="M4.71195 19.0797L5.0821 19.3028C6.6382 20.2406 8.42189 20.7368 10.2406 20.7375H10.2447C15.8309 20.7375 20.3774 16.12 20.3796 10.4444C20.3807 7.69406 19.3275 5.10794 17.414 3.16238C15.5004 1.21669 12.9558 0.14457 10.2487 0.143677C4.65822 0.143677 0.111605 4.76079 0.109376 10.436C0.108613 12.3809 0.644419 14.2751 1.65896 15.9138L1.89994 16.3033L0.87607 20.1016L4.71195 19.0797ZM16.3878 13.39C16.3117 13.2608 16.1086 13.1834 15.8039 13.0285C15.4992 12.8736 14.0013 12.1251 13.722 12.0217C13.4427 11.9186 13.2396 11.867 13.0365 12.1766C12.8334 12.4864 12.2495 13.1834 12.0717 13.39C11.894 13.5965 11.7163 13.6223 11.4117 13.4674C11.107 13.3126 10.1252 12.9857 8.96146 11.9315C8.05568 11.111 7.4442 10.0978 7.26645 9.78796C7.08877 9.47823 7.2475 9.3107 7.40002 9.15646C7.53711 9.01777 7.70476 8.79501 7.85711 8.61432C8.00945 8.43369 8.06019 8.30453 8.16179 8.0981C8.26333 7.89155 8.21253 7.71091 8.13639 7.55602C8.06019 7.40106 7.45088 5.87795 7.197 5.25836C6.94963 4.65504 6.69844 4.73672 6.51143 4.72719C6.33392 4.71825 6.1306 4.71628 5.92752 4.71628C5.72438 4.71628 5.39429 4.79367 5.11501 5.10353C4.83573 5.41326 4.04862 6.16195 4.04862 7.68494C4.04862 9.20811 5.14041 10.6794 5.29275 10.8859C5.4451 11.0925 7.4412 14.2179 10.4976 15.5583C11.2245 15.8772 11.7921 16.0675 12.2345 16.2102C12.9645 16.4457 13.6286 16.4125 14.1536 16.3328C14.739 16.2439 15.9563 15.5842 16.2102 14.8615C16.464 14.1385 16.464 13.519 16.3878 13.39Z" fill="#D16527"/>
</mask>
<g mask="url(#mask0_309_254)">
<path d="M26.8676 -6.44604H-7.1875V28.1516H26.8676V-6.44604Z" fill="#D16527"/>
</g>
</svg>
